<svg viewbox="0 0 439 717" xmlns="http://www.w3.org/2000/svg">
    <polygon points="41 123 151 123 151 123 151 195 151 195 41 195 41 195 41 123" stroke="black" fill="#FFFFFF"/>
    <polygon points="41 206 151 206 151 206 151 278 151 278 41 278 41 278 41 206" stroke="black" fill="#FFFFFF"/>
    <polygon points="41 288 151 288 151 288 151 360 151 360 41 360 41 360 41 288" stroke="black" fill="#FFFFFF"/>
    <polygon points="41 371 151 371 151 371 151 443 151 443 41 443 41 443 41 371" stroke="black" fill="#FFFFFF"/>
    <polygon points="41 454 151 454 151 454 151 526 151 526 41 526 41 526 41 454" stroke="black" fill="#FFFFFF"/>
    <polygon points="41 536 151 536 151 536 151 608 151 608 41 608 41 608 41 536" stroke="black" fill="#FFFFFF"/>
    <path d="M 167 123 L 167 609" stroke="black" stroke-width="0.5%"/>
    <path d="M 167 123 C 518 123 518 609 167 609" stroke="black" fill="#eaf2f3"/>
</svg>
