<svg viewbox="0 0 257 257" xmlns="http://www.w3.org/2000/svg" style="background-color:#8296ad">
    <path d="M 64 115 L 90 82 117 82 117 115 64 115" stroke="#FFFFFF" fill="#8296AD"/>
    <path d="M 128 115 L 128 82 149 82 170 115 128 115" stroke="#FFFFFF" fill="#8296AD"/>
    <path d="M 34 178 L 8 178 8 114 48 114 77 76" stroke="#FFFFFF" fill="#8296AD"/>
    <path d="M 159 178 C 164 135 224 135 230 178" stroke="#FFFFFF" fill="#8296AD"/>
    <path d="M 34 178 C 39 135 103 135 108 178" stroke="#FFFFFF" fill="#8296AD"/>
    <path d="M 187 113 C 240 113 252 127 245 178" stroke="#FFFFFF" fill="#8296AD"/>
    <path d="M 77 76 C 80 73 85 71 88 70" stroke="#FFFFFF" fill="white"/>
    <path d="M 149 70 C 152 70 155 72 158 75" stroke="#FFFFFF" fill="white"/>
    <circle cx="70" cy="181" r="27" stroke="#FFFFFF" fill="#8296AD"/>
    <circle cx="194" cy="181" r="27" stroke="#FFFFFF" fill="#8296AD"/>
    <line x1="108" y1="178" x2="159" y2="178" stroke="#FFFFFF"/>
    <line x1="230" y1="178" x2="245" y2="178" stroke="#FFFFFF"/>
    <line x1="158" y1="75" x2="187" y2="113" stroke="#FFFFFF"/>
    <line x1="88" y1="70" x2="149" y2="70" stroke="#FFFFFF"/>
</svg>
