<svg viewbox="0 0 370 423" xmlns="http://www.w3.org/2000/svg">
    <g>
        <path d="M 208 127 C 253 148 253 159 218 179" stroke="black" fill="black"></path>
        <path d="M 217 28 C 151 74 151 96 208 128" stroke="black" fill="black"></path>
        <path d="M 208 128 C 239 148 239 159 213 179" stroke="black" fill="white"></path>
        <path d="M 213 179 C 192.5 195 182 201 176 233" stroke="black"></path>
        <path d="M 217 28 C 160 74 160 96 208 127" stroke="black" fill="white"></path>
        <path d="M 218 179 C 192 196 183 203 176 233" stroke="black" fill="white"></path>
        <line x1="217" y1="29" x2="208" y2="126" stroke="white"></line>
        <line x1="208" y1="131" x2="211" y2="178" stroke="transparent"></line>
    </g>

    <g>
        <path d="M 228 234 C 261 236 273 247 270 263" stroke="black" fill="black"></path>
        <path d="M 228 234 C 255 237 269 247 265 263" stroke="black" fill="white"></path>
        <line x1="268" y1="270" x2="255" y2="314" stroke="black" />
        <path d="M 270 263 C 324 261 324 290 254 324" stroke="black" fill="black" />
        <path d="M 268 270 C 314 269 316 287 255 316" stroke="black" fill="white" />
        <path d="M 265 263 C 260 281 254 302 247 324" stroke="black" fill="white" />
    </g>

    <g>
        <path d="M 104 250 C 133 235 227 235 249 250.5" stroke="black" fill="black"></path>

        <path d="M 250 253 C 234 272 138 270 117 259" stroke="black"></path>
        <path d="M 104 250 C 119 242 223 241 238.5 252.1" stroke="black" fill="white"></path>
        <path d="M 117 259 C 133 264 225 267 238 253" stroke="black" fill="white"></path>
        <path d="M 237 251 C 249 253 249 252 238 256" stroke="black" fill="white" stroke-width="8"></path>
        
        <g>
            <path d="M 98 337 C 59 367 72 382 139 393" stroke="black" fill="black"></path>
            <path d="M 139 393 C 218 399 234 397 288 368" stroke="black" fill="black"></path>
            <path d="M 98 337 C 64 367 75 383 140 389" stroke="black" fill="white"></path>
            <path d="M 140 389 C 218 396 233 394 288 368" stroke="black" fill="white"></path>
        </g>

        <g>
            <path d="M 98 337 C 57 367 72 382 139 393" stroke="black" fill="black" />
            <path d="M 138 393 C 220 396 234 398 288 368" stroke="black" fill="black" />
            <path d="M 98 337 C 63 367 75 383 140 389" stroke="black" fill="white" />
            <path d="M 140 389 C 218 395 234 394 288 368" stroke="black" fill="white" />
        </g>

        <g>
            <line x1="99" y1="337" x2="289" y2="368" stroke="white"></line>
            <path d="M 254 324 C 237 356 225 368 175 372" stroke="black" fill="black"></path>
            <path d="M 175 369 C 223 365 232 353 247 324" stroke="black" fill="white"></path>
            <path d="M 175 372 C 119 365 109 348 104 302" stroke="black" fill="black"></path>
            <path d="M 175 369 C 121 362 113 352 104 302" stroke="black" fill="white"></path>
            <path d="M 240 274 C 239 297 231 313 210 338" stroke="black" fill=""></path>
            <path d="M 236 275 C 236 297 228 313 210 338" stroke="black" fill="white"></path>
            <line x1="236" y1="275" x2="240" y2="274" stroke="black"></line>

            <path d="M 265 263 L 270 263 254 324 247 324 265 263" fill="black" stroke="black"></path>
            <path d="M 183 368 C 181 377 169 367.5 169 368" fill="black" stroke="black"></path>
            <path d="M 250 314 L 255 314 254 324 247 324 250 314" fill="black" stroke="black"></path>
            <path d="M 236 275 L 240 274 239 279 236 282 236 275" fill="black" stroke="black"></path>
            <path d="M 266 260 L 270 263 265 263" fill="black" stroke="black"></path>
            <path d="M 247 324 L 254 324 244 330" fill="black" stroke="black"></path>
            <path d="M 221 173 L 221 177 205 188 205 185 219 174" fill="black" stroke="black"></path>
            <path d="M 128 392 L 128 388 153 390 151 394" fill="black"></path>
        </g>

</svg>
