<svg viewbox="0 0 440 531" xmlns="http://www.w3.org/2000/svg" style="background-color:#8296ad">
    <path d="M 223 102 L 342 151 390 270 342 392 222 438 101 392 49 270 101 151 223 102" stroke="white" fill="transparent"/>
    <path d="M 223 102 L 161 208 49 270 161 331 222 438 284 331 390 270 284 208 223 102" stroke="white" fill="transparent"/>
    <path d="M 161 208 L 161 331 284 331 284 208 161 208" stroke="white" fill="transparent"/>
    <path d="M 101 151 L 342 151 342 392 101 392 101 151" stroke-dasharray="3" stroke-width="0.5" stroke="white" fill="transparent"/>
    <line x1="101" y1="151" x2="342" y2="392" stroke-dasharray="3" stroke-width="0.5" stroke="white"/>
    <line x1="342" y1="151" x2="101" y2="392" stroke-dasharray="3" stroke-width="0.5" stroke="white"/>
    <line x1="49" y1="270" x2="390" y2="270" stroke-dasharray="3" stroke-width="0.5" stroke="white"/>
    <line x1="223" y1="102" x2="222" y2="438" stroke-dasharray="3" stroke-width="0.5" stroke="white"/>
    <image href="../images/cw-customer-journey-images/customer-journey-02.png" x="90" y="142" width="20" height="20"/>
    <image href="../images/cw-customer-journey-images/customer-journey-01.png" x="212" y="93" width="20" height="20"/>
    <image href="../images/cw-customer-journey-images/customer-journey-02.png" x="331" y="142" width="20" height="20"/>
    <image href="../images/cw-customer-journey-images/customer-journey-03.png" x="150" y="199" width="20" height="20"/>
    <image href="../images/cw-customer-journey-images/customer-journey-04.png" x="150" y="322" width="20" height="20"/>
    <image href="../images/cw-customer-journey-images/customer-journey-02.png" x="273" y="199" width="20" height="20"/>
    <image href="../images/cw-customer-journey-images/customer-journey-09.png" x="379" y="261" width="20" height="20"/>
    <image href="../images/cw-customer-journey-images/customer-journey-06.png" x="38" y="259" width="20" height="20"/>
    <image href="../images/cw-customer-journey-images/customer-journey-07.png" x="273" y="322" width="20" height="20"/>
    <image href="../images/cw-customer-journey-images/customer-journey-02.png" x="90" y="383" width="20" height="20"/>
    <image href="../images/cw-customer-journey-images/customer-journey-02.png" x="331" y="383" width="20" height="20"/>
    <image href="../images/cw-customer-journey-images/customer-journey-08.png" x="211" y="429" width="20" height="20"/>
</svg>