<svg viewbox="0 0 197.16 197.16" xmlns="http://www.w3.org/2000/svg">
    <circle cx="99" cy="99.5" r="96.5" fill="#A0D5FF"/>
    <line x1="99" x2="23" y1="3" y2="40" stroke="#1F74C1" fill="#1F74C1" stroke-width="2"/>
    <line x1="38" y1="141" x2="19" y2="154"/>
    <line x1="99" y1="3" x2="99" y2="26"/>
    <path d="M 23 39 C 39 19 70 3 98 3" fill="#1F74C1"/>
    <line x1="41" y1="54" x2="23" y2="40"/>
    <path d="M 22 40 L 40 54 99 3" fill="#1F74C1"/>
    <path d="M 99 26 L 22 40 99 3" fill="#1F74C1"/>
    <path d="M 40 54 L 62 32 99 26" fill="#1F74C1"/>
    <path d="M 23 40 C -1 70 -5 115 19 152" fill="#F54750"/>
    <path d="M 40 54 L 37 142 19 153 23 40" fill="#F54750"/>
    <circle cx="99" cy="99.5" r="73.5" fill="#EEEEEE "/>
    <line x1="23" y1="40" x2="19" y2="152" stroke="#F54750"/>
</svg>
