<svg viewbox="0 0 197.16 197.16" xmlns="http://www.w3.org/2000/svg">
    <circle cx="99" cy="99.5" r="96.8" fill="#A0D5FF"/>
    <line x1="98.5" x2="24" y1="5" y2="42" stroke="#1F74C1" fill="#1F74C1" stroke-width="5.1"/>
    <line x1="38" y1="141" x2="19" y2="154"/>
    <line x1="99" y1="2.9" x2="99" y2="26" stroke="#1F74C1" stroke-width="2"/>
    <path d="M 23 40 C 39 17 70 2.5 99 3" fill="#1F74C1"/>
    <line x1="41" y1="54" x2="23" y2="40"/>
    <path d="M 22 41 L 42 56 99 3" fill="#1F74C1"/>
    <path d="M 99 26 L 23.5 40 99 3" fill="#1F74C1"/>
    <path d="M 40 54 L 62 32 99 26" fill="#1F74C1"/>
    <path d="M 23 40 C -3 71 -7 115 18.5 153" fill="#F54750"/>
    <path d="M 41 54 L 39.5 142 18.5 153 23 40" fill="#F54750"/>
    <circle cx="99" cy="99.5" r="73.5" fill="#EEEEEE "/>
    <line x1="23" y1="40.5" x2="19" y2="152" stroke="#F54750"/>
</svg>
