<svg viewbox="0 0 549 717" xmlns="http://www.w3.org/2000/svg" style="background-color:#32bdd2">
    <circle cx="275" cy="338" r="233" stroke="#a2ced9" fill="#eaf2f4"/>
    <circle cx="275" cy="338" r="82" stroke="#a2ced9" fill="#32bdd2"/>
    <line x1="57" y1="257" x2="52" y2="270" stroke="#32BDD2" stroke-width="2"/>
    <line x1="269" y1="105" x2="284" y2="105" stroke="#32bdd2" stroke-width="2"/>
    <line x1="494" y1="260" x2="498" y2="274" stroke="#32bdd2" stroke-width="3"/>
    <line x1="415" y1="523" x2="404" y2="530" stroke="#32bdd2" stroke-width="5"/>
    <line x1="143" y1="528" x2="132" y2="520" stroke="#32bdd2" stroke-width="5"/>
    <line x1="277" y1="256" x2="290" y2="257" stroke="#32bdd2" stroke-width="2"/>
    <line x1="353" y1="315" x2="356" y2="328" stroke="#32bdd2" stroke-width="3"/>
    <line x1="320" y1="404" x2="308" y2="411" stroke="#32bdd2" stroke-width="6"/>
    <line x1="225" y1="402" x2="215" y2="393" stroke="#32bdd2" stroke-width="3"/>
    <line x1="199" y1="309" x2="204" y2="298" stroke="#32bdd2" stroke-width="3"/>
    <path d="M 52 270 L 151 262 199 309 204 298 154 250 57 257 52 270" stroke="#32BDD2" fill="#32bdd2"/>
    <path d="M 199 309 L 151 262 52 270" stroke="#a2ced9" fill="#eaf2f4"/>
    <path d="M 225 402 L 215 393 153 424 132 520 143 528 165 430 225 402" stroke="#32bdd2" fill="#32bdd2"/>
    <path d="M 225 402 L 165 430 143 528" stroke="#a2ced9" fill="#eaf2f4"/>
    <path d="M 320 404 L 308 411 320 480 404 530 415 523 330 471 320 404" stroke="#32bdd2" fill="#32bdd2"/>
    <path d="M 417 524 L 330 471 321 405" stroke="#a2ced9" fill="#eaf2f4"/>
    <path d="M 353 315 L 356 328 426 338 498 274 494 260 420 326 353 315" stroke="#32bdd2" fill="#32bdd2"/>
    <path d="M 353 315 L 420 326 495 259" stroke="#a2ced9" fill="#eaf2f4"/>
    <path d="M 269 105 L 284 105 321 196 290 257 277 256 308 196 269 105" stroke="#32bdd2" fill="#32bdd2"/>
    <path d="M 269 105 L 308 196 277 256" stroke="#a2ced9" fill="#eaf2f4"/>
    <line x1="284" y1="105" x2="321" y2="196" stroke="#a2ced9"/>
    <line x1="321" y1="196" x2="290" y2="257" stroke="#a2ced9"/>
    <line x1="356" y1="328" x2="426" y2="338" stroke="#a2ced9"/>
    <line x1="426" y1="338" x2="498" y2="274" stroke="#a2ced9"/>
    <line x1="308" y1="412" x2="320" y2="480" stroke="#a2ced9"/>
    <line x1="320" y1="480" x2="405" y2="532" stroke="#a2ced9"/>
    <line x1="215" y1="393" x2="153" y2="424" stroke="#a2ced9"/>
    <line x1="153" y1="424" x2="131" y2="522" stroke="#a2ced9"/>
    <line x1="204" y1="298" x2="154" y2="250" stroke="#a2ced9"/>
    <line x1="154" y1="250" x2="57" y2="257" stroke="#a2ced9"/>
    <line x1="165" y1="430" x2="142" y2="530" stroke="#a2ced9"/>
</svg>
