<svg viewbox="0 0 440 531" xmlns="http://www.w3.org/2000/svg">
    <circle cx="229" cy="270" r="131" stroke="white"/>
    <circle cx="229" cy="270" r="122" stroke="white"/>
    <polygon points="262 323 244 303 244 303 247 285 247 285 267 284 267 284 274 315" stroke="white" fill="black"/>
    <polygon points="185 249 185 278 185 278 193 295 193 295 205 302 205 302 221 301 221 301 215 288 215 288 209 267 209 267 185 249" stroke="white" fill="black"/>
    <polygon points="193 295 198 292 198 292 200 277 200 277 185 278" stroke="white" fill="black"/>
    <polygon points="209 267 226 243 226 243 233 228 233 228 247 218 247 218 263 218 263 218 276 245 276 245 285 264 285 264 267 284 267 284 247 285 247 285 209 267" stroke="white" fill="black"/>
    <polygon points="214 200 227 188 227 188 244 188 244 188 257 204 257 204 247 218 247 218 233 228 233 228 214 218 214 218 213 200" stroke="white" fill="black"/>
    <polygon points="274 202 281 218 281 218 284 236 284 236 285 264 285 264 303 266 303 266 306 250 306 250 305 239 305 239 295 218 295 218 274 202" stroke="white" fill="black"/>
    <polygon points="257 204 258 190 258 190 274 202 274 202 263 218 263 218 257 204" stroke="white" fill="black"/>
    <polygon points="157 223 164 209 164 209 182 197 182 197 202 190 202 190 216 188 216 188 205 197 205 197 214 200 214 200 214 218 214 218 207 227 207 227 185 249 185 249 176 230 176 230 157 223 157 223 164 209" stroke="white" fill="black"/>
    <polygon points="267 284 285 264 285 264 308 284 308 284 291 312 291 312 267 284" stroke="white" fill="black"/>
    <polygon points="262 323 274 315 274 315 272 333 272 333 274 356 274 356 262 357 262 357 262 323" stroke="white" fill="black"/>
    <circle cx="185" cy="249" r="2" stroke="white" fill="black"/>
    <circle cx="209" cy="267" r="2" stroke="white" fill="white"/>
    <circle cx="263" cy="218" r="2" stroke="white" fill="white"/>
    <circle cx="285" cy="264" r="2" stroke="white" fill="white"/>
    <circle cx="253" cy="250" r="2" stroke="white" fill="white"/>
    <circle cx="267" cy="334" r="2" stroke="white" fill="white"/>
    <circle cx="183" cy="202" r="2" stroke="white" fill="white"/>
    <circle cx="224" cy="207" r="2" stroke="white" fill="white"/>
    <circle cx="284" cy="236" r="2" stroke="white" fill="white"/>
    <circle cx="207" cy="227" r="2" stroke="white" fill="white"/>
    <circle cx="267" cy="284" r="2" stroke="white" fill="white"/>
    <circle cx="233" cy="228" r="2" stroke="white" fill="white"/>
    <circle cx="229" cy="126" r="2" stroke="white"/>
    <circle cx="373" cy="270" r="2" stroke="white" fill="transparent"/>
    <circle cx="85" cy="270" r="2" stroke="white" fill="transparent"/>
    <circle cx="229" cy="414" r="2" stroke="white" fill="transparent"/>
    <path d="M 229 128 L 229 149" stroke="white"/>
    <path d="M 371 270 L 351 270" stroke="white"/>
    <path d="M 87 270 L 108 270" stroke="white"/>
    <path d="M 229 412 L 229 392" stroke="white"/>
    <path d="M 157 223 L 148 230 143 246 140 253 140 265 150 279 169 285 185 249" stroke="white" fill="black"/>
    <path d="M 141 253 L 154 251 143 246" stroke="white" fill="black"/>
    <path d="M 148 230 L 154 251" stroke="white"/>
    <path d="M 157 223 L 154 251" stroke="white"/>
    <path d="M 176 230 L 154 251" stroke="white"/>
    <path d="M 185 249 L 154 251" stroke="white"/>
    <path d="M 169 285 L 154 251" stroke="white"/>
    <path d="M 140 253 L 154 251" stroke="white"/>
    <path d="M 205 197 L 202 190" stroke="white"/>
    <path d="M 291 312 L 286 282" stroke="white"/>
    <path d="M 308 284 L 286 282" stroke="white"/>
    <path d="M 285 264 L 286 282" stroke="white"/>
    <path d="M 267 284 L 286 282" stroke="white"/>
    <path d="M 262 323 L 267 334" stroke="white"/>
    <path d="M 274 315 L 267 334" stroke="white"/>
    <path d="M 272 333 L 267 334" stroke="white"/>
    <path d="M 262 357 L 267 334" stroke="white"/>
    <path d="M 262 323 L 256 303" stroke="white"/>
    <path d="M 244 303 L 256 303" stroke="white"/>
    <path d="M 247 285 L 256 303" stroke="white"/>
    <path d="M 274 315 L 256 303" stroke="white"/>
    <path d="M 205 302 L 215 288" stroke="white"/>
    <path d="M 221 301 L 198 292" stroke="white"/>
    <path d="M 200 277 L 209 267" stroke="white"/>
    <path d="M 209 267 L 253 250" stroke="white"/>
    <path d="M 226 243 L 253 250" stroke="white"/>
    <path d="M 233 228 L 253 250" stroke="white"/>
    <path d="M 247 218 L 253 250" stroke="white"/>
    <path d="M 263 218 L 253 250" stroke="white"/>
    <path d="M 276 245 L 253 250" stroke="white"/>
    <path d="M 285 264 L 253 250" stroke="white"/>
    <path d="M 267 284 L 253 250" stroke="white"/>
    <path d="M 247 285 L 253 250" stroke="white"/>
    <path d="M 215 288 L 247 285" stroke="white"/>
    <path d="M 221 301 L 244 303" stroke="white"/>
    <path d="M 214 200 L 224 207" stroke="white"/>
    <path d="M 257 204 L 224 207" stroke="white"/>
    <path d="M 247 218 L 224 207" stroke="white"/>
    <path d="M 233 228 L 224 207" stroke="white"/>
    <path d="M 303 266 L 284 236" stroke="white"/>
    <path d="M 285 264 L 306 250" stroke="white"/>
    <path d="M 284 236 L 295 218" stroke="white"/>
    <path d="M 281 218 L 295 218" stroke="white"/>
    <path d="M 276 245 L 284 236" stroke="white"/>
    <path d="M 263 218 L 281 218" stroke="white"/>
    <path d="M 308 284 L 303 266" stroke="white"/>
    <path d="M 244 188 L 258 190" stroke="white"/>
    <path d="M 216 188 L 227 188 233 187" stroke="white"/>
    <path d="M 176 230 L 183 202" stroke="white"/>
    <path d="M 183 202 L 185 218 185 249" stroke="white"/>
    <path d="M 185 218 L 207 227" stroke="white"/>
    <path d="M 209 267 L 207 227 226 243" stroke="white" fill="black"/>
    <path d="M 164 209 L 183 202 182 197" stroke="white" fill="black"/>
    <path d="M 205 197 L 183 202 214 218" stroke="white" fill="black"/>
    <circle cx="154" cy="251" r="2" stroke="white" fill="white"/>
    <line x1="154" y1="251" x2="140" y2="265" stroke="white"/>
    <line x1="154" y1="251" x2="150" y2="279" stroke="white"/>
    <line x1="200" y1="277" x2="215" y2="288" stroke="white"/>
    <line x1="183" y1="202" x2="207" y2="227" stroke="white"/>
    <line x1="185" y1="249" x2="200" y2="277" stroke="white"/>
    <line x1="274" y1="315" x2="291" y2="312" stroke="white"/>
    <line x1="169" y1="285" x2="185" y2="278" stroke="white"/>
    <line x1="202" y1="190" x2="205" y2="197" stroke="white"/>
    <line x1="284" y1="236" x2="305" y2="239" stroke="white"/>
    <line x1="233" y1="187" x2="224" y2="207" stroke="white"/>
</svg>
