<svg viewbox="0 0 439 531" xmlns="http://www.w3.org/2000/svg">
    <path d="M 205 391 L 151 438 210 451 223 449 270 447 317 445 341 443 337 404 340 379 342 334 335 315 287 312" stroke="white" fill="black"/>
    <path d="M 204 321 L 280 329 292 347 293 364 315 381 337 404" stroke="white" fill="black"/>
    <path d="M 210 451 L 242 423 282 422 270 447" stroke="white" fill="black"/>
    <path d="M 280 329 L 294 326 335 315" stroke="white"/>
    <path d="M 280 329 L 281 355 281 388 282 422" stroke="white" fill="black"/>
    <path d="M 242 423 L 232 450 282 422" stroke="white" fill="black"/>
    <path d="M 282 422 L 316 395 341 443 317 434 282 422" stroke="white" fill="black"/>
    <path d="M 292 347 L 315 343 293 364" stroke="white" fill="black"/>
    <path d="M 251 386 L 281 388 242 423" stroke="white" fill="black"/>
    <path d="M 281 355 L 293 383 316 395 337 404" stroke="white" fill="black"/>
    <path d="M 294 326 L 315 343 315 381 331 353 342 334 315 343 335 315" stroke="white" fill="black"/>
    <path d="M 121 126 L 119 106 126 90 132 87 141 82 153 81 167 87 175 99 181 104 205 110 218 106 245 114 297 154 309 194 303 232 309 242 316 276 307 298 294 305 287 312 282 314 263 322 240 319 218 318 200 311 204 321 213 342 218 351 237 374 251 386 253 395 251 404 246 405 235 411 223 425 220 433 206 438 201 436 193 436 189 434 186 434 184 426 187 422 207 414 208 395 205 391 195 368 158 333 147 322 135 318 122 305 124 282 135 269 120 273 119 284 119 296 116 296 113 292 109 303 114 309 116 313 113 313 114 317" stroke="white" fill="black"/>
    <path d="M 114 317 L 113 321 109 321 107 321 104 315 100 315 97 301 102 263 110 252 117 250 123 248 137 242 142 240 154 236 170 238 151 218 143 204 132 192 129 183 133 172 141 165 146 158 142 158 140 153 136 152 136 149 133 148 132 146 125 148 126 134 124 130" stroke="white" fill="black"/>
    <path d="M 151 154 L 160 149 170 147 170 147 170 150 166 153 176 154 172 158 167 161 174 161 173 166 163 167 161 169 169 170 169 173 160 174 154 179 152 186 163 197 172 206 184 210 186 183 199 159 192 150 176 145 157 130 157 138 151 154 " stroke="white" fill="black"/>
    <path d="M 146 158 L 148 142 152 135 154 124 125 114 119 106" stroke="white" fill="black"/>
    <path d="M 146 158 L 148 142 152 135 154 124 125 114 119 106" stroke="white" fill="black"/>
    <path d="M 151 154 L 148 157 146 158" stroke="white" fill="black"/>
    <path d="M 132 87 L 130 95 148 112 159 114" stroke="white" fill="black"/>
    <path d="M 130 95 L 125 114 148 112" stroke="white" fill="black"/>
    <path d="M 125 114 L 154 124 139 137 136 149 " stroke="white" fill="black"/>
    <path d="M 119 106 L 125 114 132 124 139 137" stroke="white" fill="black"/>
    <path d="M 181 113 L 180 123 169 123" stroke="white" fill="black"/>
    <path d="M 132 124 L 128 130 124 130 121 126" stroke="white" fill="black"/>
    <path d="M 132 87 L 143 90 153 81" stroke="white" fill="black"/>
    <path d="M 130 95 L 143 90 148 112" stroke="white" fill="black"/>
    <path d="M 143 90 L 154 104 159 114" stroke="white" fill="black"/>
    <path d="M 199 159 L 199 153 206 161 213 168 211 149" stroke="white" fill="black"/>
    <path d="M 164 114 L 169 123 176 145 180 123 199 117 207 112 181 113 164 114" stroke="white" fill="black"/>
    <path d="M 178 259 L 195 250 200 236 214 213 228 201 238 204 241 229 239 252 240 257 240 264 215 263 178 259 167 265 156 267 135 269" stroke="white" fill="bkack"/>
    <path d="M 199 159 L 199 153 199 138 199 117" stroke="white" fill="black"/>
    <path d="M 192 150 L 180 123 199 138" stroke="white" fill="black"/>
    <path d="M 199 138 L 209 132 211 149 213 168" stroke="white" fill="black"/>
    <path d="M 218 106 L 240 123 261 134 281 147 297 154" stroke="white" fill="black"/>
    <path d="M 186 183 L 200 167 206 161 213 168 223 159 238 173 241 169 271 160 295 171 309 194" stroke="black" fill="black"/>
    <path d="M 211 149 L 235 143 238 173" stroke="white" fill="black"/>
    <path d="M 295 171 L 276 188 294 192 309 194" stroke="white" fill="black"/>
    <path d="M 272 160 L 261 164 295 171" stroke="white" fill="black"/>
    <path d="M 261 134 L 250 150 281 147" stroke="white" fill="black"/>
    <path d="M 228 201 L 238 204 262 210 278 210 294 192" stroke="white" fill="black"/>
    <path d="M 253 268 L 269 275 276 298 282 314 292 288 307 298" stroke="white" fill="black"/>
    <path d="M 240 264 L 253 268 281 273 280 234 309 242" stroke="white" fill="black"/>
    <path d="M 294 192 L 287 205 270 227 280 234 309 242 303 232" stroke="white" fill="black"/>
    <path d="M 200 167 L 186 183 188 207 198 194 214 213 210 178 219 177 238 176 228 201" stroke="white" fill="black"/>
    <path d="M 214 213 L 210 178" stroke="white" fill="black"/>
    <path d="M 200 167 L 192 187 210 178" stroke="white" fill="black"/>
    <path d="M 128 130 L 139 137 148 142 136 149 139 137" stroke="white" fill="black"/>
    <path d="M 124 282 L 152 290 173 299 200 311" stroke="white" fill="black"/>
    <path d="M 122 305 L 138 314 147 322 135 318" stroke="white" fill="black"/>
    <path d="M 262 210 L 256 236 270 255 270 227 278 210 262 210" stroke="white" fill="black"/>
    <path d="M 261 164 L 251 194 276 188 261 164" stroke="white" fill="black"/>
    <path d="M 247 145 L 261 134 250 150 244 157" stroke="white" fill="black"/>
    <path d="M 235 143 L 243 132 247 145 235 143" stroke="white" fill="black"/>
    <path d="M 241 229 L 246 246 256 236 253 268" stroke="white" fill="black"/>
    <path d="M 238 204 L 251 194 262 210" stroke="white" fill="black"/>
    <path d="M 235 143 L 211 149 223 159" stroke="white" fill="black"/>
    <path d="M 135 269 L 146 274 182 271 197 301 218 318 239 305 264 303 217 284 182 271" stroke="white" fill="black"/>
    <path d="M 264 303 L 265 314 263 322 239 305" stroke="white" fill="black"/>
    <path d="M 264 303 L 276 298 265 314 282 314" stroke="white" fill="black"/>
    <path d="M 276 188 L 262 210 278 210 276 188" stroke="white" fill="black"/>
    <path d="M 280 234 L 287 205 303 232" stroke="white" fill="black"/>
    <path d="M 270 227 L 262 210 270 255" stroke="white" fill="black"/>
    <path d="M 280 234 L 292 288 309 242" stroke="white" fill="black"/>
    <path d="M 253 268 L 270 255 281 273" stroke="white" fill="black"/>
    <path d="M 264 303 L 247 270 276 298" stroke="white" fill="black"/>
    <path d="M 253 268 L 247 270 217 284" stroke="white" fill="black"/>
    <path d="M 182 271 L 220 295 197 301" stroke="white" fill="black"/>
    <path d="M 218 318 L 220 295 239 305" stroke="white" fill="black"/>
    <path d="M 281 273 L 287 282 292 288" stroke="white" fill="black"/>
    <path d="M 207 414 L 208 395 209 373 213 342" stroke="white" fill="black"/>
    <path d="M 207 414 L 211 397 215 391 237 387 251 386" stroke="white" fill="black"/>
    <path d="M 124 282 L 146 303 160 311 200 311" stroke="white" fill="black"/>
    <path d="M 158 333 L 155 324 175 332 213 342" stroke="white" fill="black"/>
    <path d="M 135 269 L 152 290 146 274" stroke="white" fill="black"/>
    <path d="M 175 332 L 185 311 213 342" stroke="white" fill="black"/>
    <path d="M 152 290 L 182 271" stroke="white" fill="black"/>
    <path d="M 122 305 L 146 303 160 311 175 332" stroke="white" fill="black"/>
    <path d="M 175 332 L 197 361 213 342 175 332" stroke="white" fill="black"/>
    <path d="M 187 422 L 189 434 194 427 203 430 220 433" stroke="white" fill="black"/>
    <path d="M 187 422 L 189 434 194 427 203 430 220 433" stroke="white" fill="black"/>
    <path d="M 207 414 L 204 426 203 430" stroke="white" fill="black"/>
    <path d="M 231 399 L 216 422 235 411" stroke="white" fill="black"/>
    <path d="M 215 391 L 231 399 246 405" stroke="white" fill="black"/>
    <path d="M 188 207 L 192 214 200 236" stroke="white" fill="black"/>
    <path d="M 188 207 L 184 210 185 217 192 214 200 236" stroke="white" fill="black"/>
    <path d="M 185 217 L 185 222 191 232 195 250" stroke="white" fill="black"/>
    <path d="M 97 301 L 102 301 106 285 115 272 110 265 123 259 126 257 138 255 142 247 151 246 154 236 142 247 142 240" stroke="white" fill="black"/>
    <path d="M 141 165 L 144 167 146 169 155 172 160 174" stroke="white" fill="black"/>
    <path d="M 137 188 L 143 193 157 201 166 215 170 238" stroke="white" fill="black"/>
    <path d="M 106 285 L 104 272 115 272" stroke="white" fill="black"/>
    <path d="M 213 168 L 206 161 200 167" stroke="white" fill="black"/>
    <path d="M 169 123 L 180 123 181 113" stroke="white" fill="black"/>
    <path d="M 175 99 L 159 114 158 123" stroke="white" fill="black"/>
    <path d="M 270 447 L 232 450 210 451" stroke="white" fill="black"/>
    <line x1="173" y1="299" x2="197" y2="301" stroke="white"/>
    <line x1="220" y1="295" x2="264" y2="303" stroke="white"/>
    <line x1="143" y1="204" x2="163 " y2="197" stroke="white"/>
    <line x1="151" y1="218" x2="157 " y2="201" stroke="white"/>
    <line x1="184" y1="210" x2="192" y2="214" stroke="white"/>
    <line x1="138" y1="314" x2="146" y2="303" stroke="white"/>
    <line x1="155" y1="324" x2="146" y2="303" stroke="white"/>
    <line x1="160" y1="311" x2="152" y2="290" stroke="white"/>
    <line x1="175" y1="332" x2="195" y2="368" stroke="white"/>
    <line x1="205" y1="391" x2="197" y2="361" stroke="white"/>
    <line x1="187" y1="422" x2="194" y2="427" stroke="white"/>
    <line x1="194" y1="427" x2="193" y2="436" stroke="white"/>
    <line x1="203" y1="430" x2="201" y2="436" stroke="white"/>
    <line x1="194" y1="427" x2="204" y2="426" stroke="white"/>
    <line x1="251" y1="386" x2="246" y2="405" stroke="white"/>
    <line x1="192" y1="214" x2="214" y2="213" stroke="white"/>
    <line x1="185" y1="217" x2="182" y2="223" stroke="white"/>
    <line x1="182" y1="223" x2="191" y2="232" stroke="white"/>
    <line x1="191" y1="232" x2="177" y2="236" stroke="white"/>
    <line x1="97" y1="301" x2="104" y2="315" stroke="white"/>
    <line x1="102" y1="301" x2="109 " y2="321" stroke="white"/>
    <line x1="102" y1="301" x2="113 " y2="313" stroke="white"/>
    <line x1="102" y1="263" x2="104 " y2="272" stroke="white"/>
    <line x1="110" y1="265" x2="104 " y2="272" stroke="white"/>
    <line x1="110" y1="252" x2="110 " y2="265" stroke="white"/>
    <line x1="117" y1="250" x2="110 " y2="265" stroke="white"/>
    <line x1="123" y1="248" x2="126 " y2="257" stroke="white"/>
    <line x1="138" y1="255" x2="151 " y2="263" stroke="white"/>
    <line x1="123" y1="259" x2="151 " y2="263" stroke="white"/>
    <line x1="151" y1="263" x2="135 " y2="269" stroke="white"/>
    <line x1="120" y1="273" x2="115" y2="272" stroke="white"/>
    <line x1="115" y1="272" x2="113" y2="292" stroke="white"/>
    <line x1="106" y1="285" x2="113" y2="292" stroke="white"/>
    <line x1="151" y1="246" x2="172" y2="257" stroke="white"/>
    <line x1="172" y1="257" x2="167" y2="265" stroke="white"/>
    <line x1="172" y1="257" x2="151" y2="263" stroke="white"/>
    <line x1="106" y1="285" x2="109" y2="303" stroke="white"/>
    <line x1="133" y1="172" x2="137 " y2="188" stroke="white"/>
    <line x1="152" y1="186" x2="137 " y2="188" stroke="white"/>
    <line x1="146" y1="169" x2="137 " y2="188" stroke="white"/>
    <line x1="161" y1="169" x2="146" y2="169" stroke="white"/>
    <line x1="129" y1="183" x2="137 " y2="188" stroke="white"/>
    <line x1="137" y1="188" x2="143" y2="193" stroke="white"/>
    <line x1="152" y1="186" x2="143 " y2="193" stroke="white"/>
    <line x1="132" y1="192" x2="143 " y2="193" stroke="white"/>
    <line x1="143" y1="193" x2="143 " y2="204" stroke="white"/>
    <line x1="228" y1="381" x2="237" y2="387" stroke="white"/>
    <line x1="218" y1="351" x2="228" y2="381" stroke="white"/>
    <line x1="209" y1="373" x2="228" y2="381" stroke="white"/>
    <line x1="209" y1="373" x2="215" y2="391" stroke="white"/>
    <line x1="197" y1="361" x2="209" y2="373" stroke="white"/>
    <line x1="216" y1="422" x2="203" y2="430" stroke="white"/>
    <line x1="207" y1="414" x2="216" y2="422" stroke="white"/>
    <line x1="211" y1="397" x2="216" y2="422" stroke="white"/>
    <line x1="317" y1="445" x2="316" y2="395" stroke="white"/>
    <line x1="281" y1="388" x2="293" y2="383" stroke="white"/>
    <line x1="293" y1="364" x2="293" y2="383" stroke="white"/>
    <line x1="331" y1="353" x2="340" y2="379" stroke="white"/>
    <line x1="132" y1="124" x2="128" y2="130" stroke="white"/>
    <line x1="128" y1="130" x2="132" y2="146" stroke="white"/>
    <line x1="154" y1="124" x2="157" y2="130" stroke="white"/>
    <line x1="152" y1="135" x2="157" y2="138" stroke="white"/>
    <line x1="148" y1="112" x2="157" y2="130" stroke="white"/>
    <line x1="125" y1="114" x2="124" y2="130" stroke="white"/>
    <line x1="159" y1="114" x2="164" y2="114" stroke="white"/>
    <line x1="205" y1="110" x2="218" y2="116" stroke="white"/>
    <line x1="218" y1="106" x2="240" y2="123" stroke="white"/>
    <line x1="181" y1="104" x2="164" y2="114" stroke="white"/>
    <line x1="157" y1="130" x2="169" y2="123" stroke="white"/>
    <line x1="209" y1="132" x2="207" y2="112" stroke="white"/>
    <line x1="199" y1="138" x2="213" y2="168" stroke="white"/>
    <line x1="281" y1="147" x2="309" y2="194" stroke="white"/>
    <line x1="240" y1="123" x2="243" y2="132" stroke="white"/>
    <line x1="243" y1="132" x2="247" y2="145" stroke="white"/>
    <line x1="247" y1="145" x2="244" y2="157" stroke="white"/>
    <line x1="240" y1="123" x2="235" y2="143" stroke="white"/>
    <line x1="244" y1="157" x2="241" y2="169" stroke="white"/>
    <line x1="214" y1="213" x2="219" y2="177" stroke="white"/>
    <line x1="228" y1="201" x2="219" y2="177" stroke="white"/>
    <line x1="210" y1="178" x2="198" y2="194" stroke="white"/>
    <line x1="192" y1="187" x2="188" y2="207" stroke="white"/>
    <line x1="209" y1="132" x2="235" y2="143" stroke="white"/>
    <line x1="251" y1="194" x2="241" y2="169" stroke="white"/>
    <line x1="218" y1="116" x2="235" y2="143" stroke="white"/>
    <line x1="240" y1="257" x2="253" y2="268" stroke="white"/>
    <line x1="239" y1="252" x2="246" y2="246" stroke="white"/>
    <line x1="200" y1="167" x2="210" y2="178" stroke="white"/>
    <line x1="210" y1="178" x2="223" y2="159" stroke="white"/>
    <line x1="241" y1="169" x2="238" y2="176" stroke="white"/>
    <line x1="250" y1="150" x2="272" y2="160" stroke="white"/>
    <line x1="201" y1="267" x2="217" y2="284" stroke="white"/>
    <line x1="292" y1="288" x2="316" y2="276" stroke="white"/>
    <line x1="201" y1="267" x2="215" y2="263" stroke="white"/>
    <line x1="247" y1="270" x2="201" y2="267" stroke="white"/>
    <line x1="156" y1="267" x2="146" y2="274" stroke="white"/>
    <line x1="166" y1="215" x2="172" y2="206" stroke="white"/>
    <line x1="151" y1="218" x2="166" y2="215" stroke="white"/>
    <line x1="172" y1="206" x2="172" y2="218" stroke="white"/>
    <line x1="172" y1="218" x2="170" y2="238" stroke="white"/>
    <line x1="172" y1="218" x2="184" y2="210" stroke="white"/>
    <line x1="172" y1="218" x2="182" y2="223" stroke="white"/>
    <line x1="177" y1="230" x2="170" y2="238" stroke="white"/>
    <line x1="177" y1="236" x2="177" y2="230" stroke="white"/>
    <line x1="170" y1="238" x2="177" y2="236" stroke="white"/>
    <line x1="184" y1="242" x2="172" y2="257" stroke="white"/>
    <line x1="184" y1="242" x2="177" y2="236" stroke="white"/>
    <line x1="109" y1="303" x2="114" y2="309" stroke="white"/>
    <line x1="119" y1="284" x2="113" y2="292" stroke="white"/>
    <line x1="109" y1="303" x2="113" y2="292" stroke="white"/>
    <line x1="116" y1="296" x2="113" y2="292" stroke="white"/>
    <line x1="113" y1="313" x2="114" y2="317" stroke="white"/>
    <line x1="184" y1="242" x2="177" y2="236" stroke="white"/>
    <line x1="114" y1="309" x2="116" y2="313" stroke="white"/>
    <line x1="146" y1="169" x2="162" y2="162" stroke="white"/>
    <line x1="162" y1="162" x2="167" y2="161" stroke="white"/>
    <line x1="146" y1="158" x2="166" y2="153" stroke="white"/>
    <line x1="166" y1="153" x2="153" y2="161" stroke="white"/>
    <line x1="153" y1="161" x2="144" y2="167" stroke="white"/>
    <line x1="153" y1="161" x2="146" y2="169" stroke="white"/>
    <line x1="146" y1="169" x2="166" y2="153" stroke="white"/>
    <line x1="166" y1="153" x2="162" y2="162" stroke="white"/>
    <line x1="116" y1="313" x2="113" y2="313" stroke="white"/>
    <line x1="177" y1="230" x2="182" y2="223" stroke="white"/>
    <line x1="177" y1="230" x2="191" y2="232" stroke="white"/>
    <line x1="170" y1="238" x2="184" y2="242" stroke="white"/>
    <line x1="138" y1="255" x2="172" y2="257" stroke="white"/>
    <line x1="123" y1="248" x2="138" y2="255" stroke="white"/>
    <line x1="123" y1="259" x2="115" y2="272" stroke="white"/>
    <line x1="182" y1="271" x2="201" y2="267" stroke="white"/>
    <line x1="102" y1="301" x2="102" y2="263" stroke="white"/>
    <line x1="195" y1="250" x2="184" y2="242" stroke="white"/>
    <line x1="138" y1="255" x2="137" y2="242" stroke="white"/>
    <line x1="218" y1="116" x2="209" y2="132" stroke="white"/>
    <line x1="128" y1="130" x2="126" y2="134" stroke="white"/>
    <line x1="143" y1="193" x2="163" y2="197" stroke="white"/>
    <line x1="137" y1="188" x2="155" y2="172" stroke="white"/>
    <line x1="218" y1="116" x2="240" y2="123" stroke="white"/>
    <line x1="240" y1="123" x2="245" y2="114" stroke="white"/>
    <line x1="157" y1="201" x2="172" y2="206" stroke="white"/>
    <line x1="155" y1="172" x2="154" y2="179" stroke="white"/>
    <line x1="143" y1="90" x2="175" y2="99" stroke="white"/>
    <line x1="164" y1="114" x2="158" y2="123" stroke="white"/>
    <line x1="146" y1="303" x2="175" y2="332" stroke="white"/>
    <line x1="269" y1="275" x2="287" y2="282" stroke="white"/>
    <line x1="292" y1="288" x2="276" y2="298" stroke="white"/>
    <line x1="200" y1="236" x2="191" y2="232" stroke="white"/>
    <line x1="130" y1="95" x2="148" y2="112" stroke="white"/>
    <line x1="213" y1="168" x2="223" y2="159" stroke="white"/>
    <line x1="223" y1="159" x2="238" y2="173" stroke="white"/>
    <line x1="241" y1="169" x2="261" y2="164" stroke="white"/>
    <line x1="272" y1="160" x2="295" y2="171" stroke="white"/>
    <line x1="158" y1="123" x2="157" y2="130" stroke="white"/>
    <circle cx="132" cy="124" r="3" fill="white"/>
    <circle cx="143" cy="90" r="3" fill="white"/>
    <circle cx="180" cy="123" r="3" fill="white"/>
    <circle cx="235" cy="143" r="3" fill="white"/>
    <circle cx="276" cy="188" r="3" fill="white"/>
    <circle cx="210" cy="178" r="3" fill="white"/>
    <circle cx="292" cy="288" r="3" fill="white"/>
    <circle cx="220" cy="295" r="3" fill="white"/>
    <circle cx="235" cy="143" r="3" fill="white"/>
    <circle cx="215" cy="391" r="3" fill="white"/>
    <circle cx="175" cy="332" r="3" fill="white"/>
    <circle cx="146" cy="303" r="3" fill="white"/>
</svg>
