<svg viewbox="0 0 550 717" xmlns="http://www.w3.org/2000/svg">
    <line x1="275" y1="174" x2="275" y2="370" stroke="black"/>
    <line x1="179" y1="272" x2="368" y2="272" stroke="black"/>
    <line x1="91" y1="370" x2="275" y2="370" stroke="black"/>
    <line x1="275" y1="370" x2="461" y2="370" stroke="black"/>
    <line x1="275" y1="370" x2="275" y2="563" stroke="black"/>
    <line x1="184" y1="473" x2="365" y2="473" stroke="black"/>
    <line x1="90" y1="563" x2="275" y2="563" stroke="black"/>
    <line x1="275" y1="563" x2="461" y2="563" stroke="black"/>
    <circle cx="275" cy="174" r="51" stroke="black" fill="white"/>
    <circle cx="179" cy="272" r="51" stroke="black" fill="white"/>
    <circle cx="368" cy="272" r="51" stroke="black" fill="white"/>
    <circle cx="91" cy="370" r="51" stroke="black" fill="white"/>
    <circle cx="275" cy="370" r="51" stroke="black" fill="white"/>
    <circle cx="461" cy="370" r="51" stroke="black" fill="white"/>
    <circle cx="184" cy="473" r="51" stroke="black" fill="white"/>
    <circle cx="365" cy="473" r="51" stroke="black" fill="white"/>
    <circle cx="90" cy="563" r="51" stroke="black" fill="white"/>
    <circle cx="275" cy="563" r="51" stroke="black" fill="white"/>
    <circle cx="461" cy="563" r="51" stroke="black" fill="white"/>
    <circle cx="275" cy="272" r="2" stroke="black" fill="white"/>
    <circle cx="179" cy="370" r="2" stroke="black" fill="white"/>
    <circle cx="368" cy="370" r="2" stroke="black" fill="white"/>
    <circle cx="275" cy="473" r="2" stroke="black" fill="white"/>
    <circle cx="179" cy="563" r="2" stroke="black" fill="white"/>
    <circle cx="368" cy="563" r="2" stroke="black" fill="white"/>
</svg>
