<svg viewbox="0 0 439 531" xmlns="http://www.w3.org/2000/svg" style="background-color:#e0ae3f">
        <g>
                <circle cx="221" cy="284" r="67" stroke="white" fill="#f9d074"/>
                <circle cx="221" cy="284" r="60" stroke="white" fill="#E0AE3F"/>
                <circle cx="221" cy="172" r="2" fill="white"/>
                <circle cx="321" cy="221" r="2" fill="white"/>
                <circle cx="320" cy="345" r="2" fill="white"/>
                <circle cx="221" cy="401" r="2" fill="white"/>
                <circle cx="122" cy="346" r="2" fill="white"/>
                <circle cx="120" cy="221" r="2" fill="white"/>
                <line x1="221" y1="217" x2="221" y2="172" stroke-dasharray="2" stroke="white"/>
                <line x1="278" y1="248" x2="321" y2="221" stroke-dasharray="2" stroke="white"/>
                <line x1="278" y1="319" x2="320" y2="345" stroke-dasharray="2" stroke="white"/>
                <line x1="221" y1="351" x2="221" y2="401" stroke-dasharray="2" stroke="white"/>
                <line x1="164" y1="319" x2="122" y2="346" stroke-dasharray="2" stroke="white"/>
                <line x1="164" y1="249" x2="120" y2="221" stroke-dasharray="2" stroke="white"/>
        </g>
<!--small images-->
        <g>
<!--shoes-->
                <path d="M 339 247.5 L 339 249.5 333 254.5 343.5 254.5 343.5 249.5 343.5 247.5" stroke="white" fill="#E0AE3F"/>
                <path d="M 347 247.5 L 347 249.5 347 254.5 357.5 254.5 351.5 249.5 351.5 247.5" stroke="white" fill="#E0AE3F"/>
                <line x1="339" y1="249.5" x2="343.5" y2="249.5" stroke="white"/>
                <line x1="347" y1="249.5" x2="351.5" y2="249.5" stroke="white"/>
                <path d="M 340.5 204 C 341 209 340.5 211 338 216.5" stroke="white" fill="#E0AE3F"/>
                <path d="M 350 204 C 349.5 209 350 211 352 216.5" stroke="white" fill="#E0AE3F"/>
<!--shoes-->
<!--hands-->
                <path d="M 337.5 221.5 C 337.5 209 337.5 206 337.5 203" stroke="white" fill="#E0AE3F"/>
                <path d="M 352.5 203 C 353 206 353 209 353.5 221.5" stroke="white" fill="#E0AE3F"/>
                <path d="M 356 201 C 356.5 205 357.5 208 357.5 221.5" stroke="white" fill="#E0AE3F"/>
                <path d="M 334.5 201 C 333.5 205 333 205 333 221.5" stroke="white" fill="#E0AE3F"/>
<!--hands-->
                <path d="M 338 216.5 L 352 216.5 354 247.5 337 247.5 338 216.5" stroke="white" fill="#E0AE3F"/>
                <line x1="347.5" y1="224" x2="348.5" y2="244" stroke="white"/>
                <line x1="341.5" y1="244" x2="342.5" y2="224" stroke="white"/>
                <line x1="338" y1="216.5" x2="352" y2="216.5" stroke="white"/>
                <path d="M 353.5 221.5 C 353.5 228 357.5 228 357.5 221.5" stroke="white" fill="#E0AE3F"/>
                <path d="M 333 221.5 C 333 228 337.5 228 337.5 221.5" stroke="white" fill="#E0AE3F"/>
                <path d="M 334 201 C 340.5 205 350 205 356.5 201" stroke="white" fill="#E0AE3F"/>
                <line x1="333" y1="221.5" x2="337.3" y2="221.5" stroke="white"/>
                <line x1="353.5" y1="221.5" x2="357.5" y2="221.5" stroke="white"/>
                <path d="M 334 201 C 333.5 199 334 198 335 197.5" stroke="white" fill="#E0AE3F"/>
                <path d="M 356 201 C 357 199 356 199 355 197.5" stroke="white" fill="#E0AE3F"/>
                <path d="M 335 197 C 336 196.5 335.5 195.5 335 194" stroke="white" fill="#E0AE3F"/>
                <path d="M 355 197.5 C 354.5 196.5 354.5 196 355 194" stroke="white" fill="#E0AE3F"/>
                <path d="M 335 194 C 314 156 376 156 355 194" stroke="white" fill="#E0AE3F"/>
        </g>
        <g>
                <path d="M 334.5 177 C 334 166 355 166 356 177" stroke="white" fill="#E0AE3F"/>
                <path d="M 334.5 177 C 341 172 349 172 356 177" stroke="white" fill="#E0AE3F"/>
                <path d="M 335 183 C 335 196 355 196 356 183" stroke="white" fill="#E0AE3F"/>
                <line x1="334.5" y1="177" x2="335" y2="183" stroke="white"/>
                <line x1="356" y1="177" x2="356" y2="183" stroke="white"/>
                <line x1="337.5" y1="177.5" x2="340.5" y2="177.5" stroke="white"/>
                <line x1="349" y1="177.5" x2="352" y2="177.5" stroke="white"/>
                <circle cx="350.5" cy="181" r="1.5" stroke="white" fill="#E0AE3F"/>
                <circle cx="339" cy="181" r="1.5" stroke="white" fill="#E0AE3F"/>
                <path d="M 345 182 C 347 184 346 186 343.5 185.5" stroke="white" fill="#E0AE3F"/>
                <path d="M 342.5 188 C 344 189 346 189 348 188" stroke="white" fill="#E0AE3F"/>
                <line x1="338" y1="181" x2="339" y2="180" stroke="white"/>
                <line x1="350" y1="181" x2="351" y2="180" stroke="white"/>
        </g>
<!--2nd-->
        <g>
                <g>
                        <path d="M 208 164 L 219 164 219 160 213.5 159 208 164" stroke="white" fill="#E0AE3F"/>
                        <path d="M 222 164 L 233 164 227.5 159 222 160 222 164" stroke="white" fill="#E0AE3F"/>
                        <path d="M 213.5 159 L 213.5 127.5 227.5 127.5 227.5 159" stroke="white" fill="#E0AE3F"/>
                        <path d="M 219 160 L 219.5 134 221.5 134 222 160" stroke="white" fill="#E0AE3F"/>
                </g>
                <g>
                        <path d="M 213 131.5 C 215.5 130.5 216 129.5 215.5 127.5" stroke="white" fill="#E0AE3F"/>
                        <path d="M 225.5 127.5 225 129.5 225.5 130.5 227.5 131.5 C " stroke="white" fill="#E0AE3F"/>
                        <path d="M 227.5 111 C 229 116 229 122 229.5 129" stroke="white" fill="#E0AE3F"/>
                        <path d="M 213.5 111 C 212 116 211.5 122 211.5 129" stroke="white" fill="#E0AE3F"/>
                        <path d="M 207.5 129 C 208 110 211 106 217 104.5" stroke="white" fill="#E0AE3F"/>
                        <path d="M 224 104.5 C 230.5 106 232 110 233.5 130" stroke="white" fill="#E0AE3F"/>
                        <path d="M 207.5 134.5 C 208.5 136 210 136 211.5 134.5" stroke="white" fill="#E0AE3F"/>
                        <path d="M 229.5 134.5 C 230.5 136 232 136 233.5 134.5" stroke="white" fill="#E0AE3F"/>
                        <path d="M 209.5 94 C 213 104 228 104 232 93" stroke="white" fill="#E0AE3F"/>
                        <path d="M 208 82 C 216 84 222 84.5 231 81" stroke="white" fill="#E0AE3F"/>
                        <path d="M 215 95.5 C 218 98.5 222 98.5 225 95.5" stroke="white" fill="#E0AE3F"/>
                        <path d="M 219.5 90.5 C 222 91.5 221.5 93 219 93.5" stroke="white" fill="#E0AE3F"/>
                        <path d="M 209.5 89 C 205 89.5 205 91 209.5 94" stroke="white" fill="#E0AE3F"/>
                        <path d="M 209.5 94 C 209 89 208.5 86 208.5 82" stroke="white" fill="#E0AE3F"/>
                        <path d="M 211 83 C 210.5 86 211 87 209.5 89" stroke="white" fill="#E0AE3F"/>
                        <path d="M 215 75 C 223 72 229 76 231 81" stroke="white" fill="#E0AE3F"/>
                        <path d="M 231 81 C 232.5 84 233 85 232.5 88" stroke="white" fill="#E0AE3F"/>
                        <path d="M 232.5 88 C 236 89 236 91 232 93" stroke="white" fill="#E0AE3F"/>
                        <path d="M 232.5 88 C 230 87 230 85 231 81" stroke="white" fill="#E0AE3F"/>
                        <path d="M 216 79 C 218 77 223 77 225.5 80" stroke="white" fill="#E0AE3F"/>
                        <path d="M 216 79 C 213.5 80 212 80 211 78.5" stroke="white" fill="#E0AE3F"/>
                        <path d="M 211.5 76 C 211.5 75 213 74 215 75" stroke="white" fill="#E0AE3F"/>
                        <path d="M 208.5 78 C 207 79 207 80 208 82" stroke="white" fill="#E0AE3F"/>
                        <path d="M 211 78.5 C 208 76 210 75 211.5 76" stroke="white" fill="#E0AE3F"/>
                        <path d="M 222 75 C 224 76 226 76.5 226.5 78" stroke="white" fill="#E0AE3F" stroke-width="2"/>
                        <path d="M 220.5 127.5 L 220.5 121 213.5 111" stroke="white" fill="#E0AE3F"/>
                        <path d="M 220.5 121 L 220.5 117 224 107 224 104.5" stroke="white" fill="#E0AE3F"/>
                        <path d="M 220.5 117 L 216.5 107 217 104.5" stroke="white" fill="#E0AE3F"/>
                        <line x1="220.5" y1="121" x2="227.5" y2="111" stroke="white"/>
                        <line x1="213.5" y1="127.5" x2="213.5" y2="111" stroke="white"/>
                        <line x1="227.5" y1="127.5" x2="227.5" y2="111" stroke="white"/>
                        <line x1="213.5" y1="104.5" x2="213.5" y2="111" stroke="white"/>
                        <line x1="227.5" y1="104.5" x2="227.5" y2="111" stroke="white"/>
                        <line x1="207.5" y1="131" x2="207.5" y2="134.5" stroke="white"/>
                        <line x1="211.5" y1="131" x2="211.5" y2="134.5" stroke="white"/>
                        <line x1="207.5" y1="129" x2="211.5" y2="129" stroke="white"/>
                        <line x1="211.5" y1="131" x2="207.5" y2="131" stroke="white"/>
                        <line x1="229.5" y1="129" x2="233.5" y2="130" stroke="white"/>
                        <line x1="229.5" y1="131" x2="229.5" y2="136" stroke="white"/>
                        <line x1="233.5" y1="131" x2="233.5" y2="134.5" stroke="white"/>
                        <line x1="229.5" y1="131" x2="233.5" y2="131" stroke="white"/>
                        <line x1="217" y1="102" x2="217" y2="104.5" stroke="white"/>
                        <line x1="224" y1="102" x2="227.5" y2="127.5" stroke="white"/>
                        <line x1="220.5" y1="107.5" x2="223.5" y2="110" stroke="white"/>
                        <line x1="220.5" y1="107.5" x2="217" y2="110" stroke="white"/>
                        <line x1="220" y1="110" x2="221" y2="110" stroke="white"/>
                        <line x1="220" y1="110" x2="218" y2="111" stroke="white"/>
                        <line x1="221" y1="110" x2="223" y2="111" stroke="white"/>
                        <line x1="215" y1="95.5" x2="225" y2="95.5" stroke="white"/>
                        <line x1="212.5" y1="87.5" x2="215.5" y2="87.5" stroke="white"/>
                        <line x1="224.5" y1="87.5" x2="227.5" y2="87.5" stroke="white"/>
                        <line x1="232.5" y1="88" x2="232" y2="93" stroke="white"/>
                        <circle cx="226.5" cy="90.5" r="1" stroke="white" fill="#E0AE3F"/>
                        <circle cx="214.5" cy="90.5" r="1" stroke="white" fill="#E0AE3F"/>
                </g>
        </g>
<!--3rd-->
        <g>
                <path d="M 332 311 C 331.5 330 356 330 356 311" stroke="white" fill="#E0AE3F"/>
                <path d="M 356 316 C 360 316  360 311 356 311" stroke="white" fill="#E0AE3F"/>
                <path d="M 332 311 C 328 311 328 316 332 316" stroke="white" fill="#E0AE3F"/>
                <path d="M 331.5 308 C 332 293 352 293 356 303" stroke="white" fill="#E0AE3F"/>
                <path d="M 356 303 C 354 305.5 352 306 351 307" stroke="white" fill="#E0AE3F"/>
                <path d="M 351 307 C 351 306 351.5 305 351.5 303" stroke="white" fill="#E0AE3F"/>
                <path d="M 351.5 303 C 349.5 306 347 307 345 308" stroke="white" fill="#E0AE3F"/>
                <path d="M 345 308 C 345.5 306 345.5 305 345.5 303" stroke="white" fill="#E0AE3F"/>
                <path d="M 345.5 303 C 342 306 340 307.5 337 307.5" stroke="white" fill="#E0AE3F"/>
                <path d="M 337 307.5 C 337 307 338 306 338.5 304" stroke="white" fill="#E0AE3F"/>
                <path d="M 338.5 304 C 336 306 333.5 307 331.5 308" stroke="white" fill="#E0AE3F"/>
                <path d="M 333.5 307 C 333.5 309 334 310.5 332 311" stroke="white" fill="#E0AE3F"/>
                <path d="M 356 303 C 353 307 353.5 309 356 311" stroke="white" fill="#E0AE3F"/>
                <path d="M 340 319.5 C 342 322 345 322 347.5 319.5" stroke="white" fill="#E0AE3F"/>
                <path d="M 341 325.5 C 341 334 347 334 347 325.5" stroke="white" fill="#E0AE3F"/>
                <path d="M 340 327 C 330 328 330 336 330.5 354" stroke="white" fill="#E0AE3F"/>
                <path d="M 334.5 354 C 334.5 339 334.5 335 336.5 332" stroke="white" fill="#E0AE3F"/>
                <path d="M 348 327 C 358 332 357 333 357.5 354" stroke="white" fill="#E0AE3F"/>
                <path d="M 351 332 C 352.5 336 353 340 353.5 354" stroke="white" fill="#E0AE3F"/>
                <path d="M 330.5 354 C 330.5 364 334.5 364 334.5 354" stroke="white" fill="#E0AE3F"/>
                <path d="M 353.5 354 C 353.5 364 357.5 364 357.5 354" stroke="white" fill="#E0AE3F"/>
                <path d="M 336.5 332 L 337 383 331 388 342.5 388 343 357.5 345 357.5 345.5 388 356 388 351 383 351 332" stroke="white" fill="#E0AE3F"/>
                <line x1="331.5" y1="308" x2="332" y2="311" stroke="white"/>
                <line x1="356" y1="303" x2="356" y2="311" stroke="white"/>
                <line x1="335" y1="310" x2="339.5" y2="310" stroke="white"/>
                <line x1="347" y1="310" x2="351.5" y2="310" stroke="white"/>
                <line x1="330.5" y1="354" x2="334.5" y2="354" stroke="white"/>
                <line x1="353.5" y1="354" x2="357.5" y2="354" stroke="white"/>
                <line x1="336.5" y1="351" x2="351" y2="351" stroke="white"/>
                <line x1="337" y1="383" x2="342.5" y2="383" stroke="white"/>
                <line x1="345.5" y1="383" x2="350.5" y2="383" stroke="white"/>
                <line x1="350.5" y1="370" x2="345.5" y2="370" stroke="white"/>
                <line x1="337" y1="370" x2="343.5" y2="370" stroke="white"/>
                <circle cx="349.5" cy="313.5" r="1" stroke="white" fill="#E0AE3F"/>
                <circle cx="338" cy="313.5" r="1" stroke="white" fill="#E0AE3F"/>
        </g>
</svg>
