<svg viewbox="0 0 439 531" xmlns="http://www.w3.org/2000/svg" style="background-color:#e0ae3f">
        <g>
                <circle cx="221" cy="284" r="67" stroke="white" fill="#f9d074"/>
                <circle cx="221" cy="284" r="60" stroke="white" fill="#E0AE3F"/>
                <circle cx="221" cy="172" r="2" fill="white"/>
                <circle cx="321" cy="221" r="2" fill="white"/>
                <circle cx="320" cy="345" r="2" fill="white"/>
                <circle cx="221" cy="401" r="2" fill="white"/>
                <circle cx="122" cy="346" r="2" fill="white"/>
                <circle cx="120" cy="221" r="2" fill="white"/>
                <line x1="221" y1="217" x2="221" y2="172" stroke-dasharray="2" stroke="white"/>
                <line x1="278" y1="248" x2="321" y2="221" stroke-dasharray="2" stroke="white"/>
                <line x1="278" y1="319" x2="320" y2="345" stroke-dasharray="2" stroke="white"/>
                <line x1="221" y1="351" x2="221" y2="401" stroke-dasharray="2" stroke="white"/>
                <line x1="164" y1="319" x2="122" y2="346" stroke-dasharray="2" stroke="white"/>
                <line x1="164" y1="249" x2="120" y2="221" stroke-dasharray="2" stroke="white"/>
        </g>
<!--small images-->
        <g>
                <path d="M 339 247.5 L 339 249.5 333 254.5 343.5 254.5 343.5 249.5 343.5 247.5" stroke="white" fill="#E0AE3F"/>
                <path d="M 347 247.5 L 347 249.5 347 254.5 357.5 254.5 351.5 249.5 351.5 247.5" stroke="white" fill="#E0AE3F"/>
                <line x1="339" y1="249.5" x2="343.5" y2="249.5" stroke="white"/>
                <line x1="347" y1="249.5" x2="351.5" y2="249.5" stroke="white"/>
                <path d="M 340.5 204 C 341 209 340.5 211 338 216.5" stroke="white" fill="#E0AE3F"/>
                <path d="M 350 204 C 349.5 209 350 211 352 216.5" stroke="white" fill="#E0AE3F"/>
                <path d="M 337.5 221.5 C 337.5 209 337.5 206 337.5 203" stroke="white" fill="#E0AE3F"/>
                <path d="M 352.5 203 C 353 206 353 209 353.5 221.5" stroke="white" fill="#E0AE3F"/>
                <path d="M 356 201 C 356.5 205 357.5 208 357.5 221.5" stroke="white" fill="#E0AE3F"/>
                <path d="M 334.5 201 C 333.5 205 333 205 333 221.5" stroke="white" fill="#E0AE3F"/>
                <path d="M 338 216.5 L 352 216.5 354 247.5 337 247.5 338 216.5" stroke="white" fill="#E0AE3F"/>
                <line x1="347.5" y1="224" x2="348.5" y2="244" stroke="white"/>
                <line x1="341.5" y1="244" x2="342.5" y2="224" stroke="white"/>
                <line x1="338" y1="216.5" x2="352" y2="216.5" stroke="white"/>
                <path d="M 353.5 221.5 C 353.5 228 357.5 228 357.5 221.5" stroke="white" fill="#E0AE3F"/>
                <path d="M 333 221.5 C 333 228 337.5 228 337.5 221.5" stroke="white" fill="#E0AE3F"/>
                <path d="M 334 201 C 340.5 205 350 205 356.5 201" stroke="white" fill="#E0AE3F"/>
                <line x1="333" y1="221.5" x2="337.3" y2="221.5" stroke="white"/>
                <line x1="353.5" y1="221.5" x2="357.5" y2="221.5" stroke="white"/>
                <path d="M 334 201 C 333.5 199 334 198 335 197.5" stroke="white" fill="#E0AE3F"/>
                <path d="M 356 201 C 357 199 356 199 355 197.5" stroke="white" fill="#E0AE3F"/>
                <path d="M 335 197 C 336 196.5 335.5 195.5 335 194" stroke="white" fill="#E0AE3F"/>
                <path d="M 355 197.5 C 354.5 196.5 354.5 196 355 194" stroke="white" fill="#E0AE3F"/>
                <path d="M 335 194 C 314 156 376 156 355 194" stroke="white" fill="#E0AE3F"/>
        </g>
        <g>
                <path d="M 334.5 177 C 334 166 355 166 356 177" stroke="white" fill="#E0AE3F"/>
                <path d="M 334.5 177 C 341 172 349 172 356 177" stroke="white" fill="#E0AE3F"/>
                <path d="M 335 183 C 335 196 355 196 356 183" stroke="white" fill="#E0AE3F"/>
                <line x1="334.5" y1="177" x2="335" y2="183" stroke="white"/>
                <line x1="356" y1="177" x2="356" y2="183" stroke="white"/>
                <line x1="337.5" y1="177.5" x2="340.5" y2="177.5" stroke="white"/>
                <line x1="349" y1="177.5" x2="352" y2="177.5" stroke="white"/>
                <circle cx="350.5" cy="181" r="1.5" stroke="white" fill="#E0AE3F"/>
                <circle cx="339" cy="181" r="1.5" stroke="white" fill="#E0AE3F"/>
                <path d="M 345 182 C 348 184 347 186 343.5 185.5" stroke="white" fill="#E0AE3F"/>
                <path d="M 342.5 188 C 344 189 346 189 348 188" stroke="white" fill="#E0AE3F"/>
                <line x1="338" y1="181" x2="339" y2="180" stroke="white"/>
                <line x1="350" y1="181" x2="351" y2="180" stroke="white"/>
        </g>
<!--2nd-->
        <g>
                <path d="M 217 104.5 L 220.5 107.5 224 104.5" stroke="white" fill="#E0AE3F"/>
                <path d="M 213.5 159 L 213.5 127.5 227.5 127.5 227.5 159" stroke="white" fill="#E0AE3F"/>
                <path d="M 219 160 L 219.5 134 221.5 134 222 160" stroke="white" fill="#E0AE3F"/>
                <path d="M 213 131.5 C 215.5 130.5 216 129.5 215.5 127.5" stroke="white" fill="#E0AE3F"/>
                <path d="M 225.5 127.5 225 129.5 225.5 130.5 227.5 131.5 C " stroke="white" fill="#E0AE3F"/>
                <path d="M 207.5 130 C 207 108 211 106 217 104.5" stroke="white" fill="#E0AE3F"/>
                <path d="M 224 104.5 C 232 105 232 110 233.5 130" stroke="white" fill="#E0AE3F"/>
                <path d="M 207.5 134.5 C 208.5 136 210 136 211.5 134.5" stroke="white" fill="#E0AE3F"/>
                <path d="M 229.5 134.5 C 230.5 136 232 136 233.5 134.5" stroke="white" fill="#E0AE3F"/>
                <path d="M 209.5 94 C 213 104 228 104 232 93" stroke="white" fill="#E0AE3F"/>
                <path d="M 208 82 C 216 84 222 84.5 231 81" stroke="white" fill="#E0AE3F"/>
                <path d="M 215 95.5 C 218 98.5 222 98.5 225 95.5" stroke="white" fill="#E0AE3F"/>
                <path d="M 219.5 90.5 C 222 91.5 221.5 93 219 93.5" stroke="white" fill="#E0AE3F"/>
                <path d="M 209.5 89 C 205 88.5 205 92 209.5 94" stroke="white" fill="#E0AE3F"/>
                <path d="M 209.5 94 C 209 89 208.5 86 208.5 82" stroke="white" fill="#E0AE3F"/>
                <path d="M 211 83 C 210.5 86 211 87 209.5 89" stroke="white" fill="#E0AE3F"/>
                <path d="M 215 75 C 223 72 229 76 231 81" stroke="white" fill="#E0AE3F"/>
                <path d="M 231 81 C 232.5 84 233 85 232.5 88" stroke="white" fill="#E0AE3F"/>
                <path d="M 232.5 88 C 236 89 236 91 232 93" stroke="white" fill="#E0AE3F"/>
                <path d="M 232.5 88 C 230 87 230 85 231 81" stroke="white" fill="#E0AE3F"/>
                <path d="M 216 79 C 218 77 223 77 225.5 80" stroke="white" fill="#E0AE3F"/>
                <path d="M 216 79 C 213.5 80 212 80 209.5 78 " stroke="white" fill="#E0AE3F"/>
                <path d="M 211.5 76 C 212.5 72 213 74 215 75" stroke="white" fill="#E0AE3F"/>
                <path d="M 209.5 78 C 207 79 207 80 208 82" stroke="white" fill="#E0AE3F"/>
                <path d="M 210 78.5 C 207 75 210 75 212.5 77" stroke="white" fill="#E0AE3F"/>
                <path d="M 222 75 C 224 76 226 76.5 226.5 78" stroke="white" fill="#E0AE3F" stroke-width="2"/>
                <path d="M 220.5 127.5 L 220.5 121 213.5 111" stroke="white" fill="#E0AE3F"/>
                <path d="M 220.5 121 L 220.5 117 224 107 224 104.5" stroke="white" fill="#E0AE3F"/>
                <path d="M 220.5 117 L 216.5 107 217 104.5" stroke="white" fill="#E0AE3F"/>
                <line x1="220.5" y1="121" x2="227.5" y2="111" stroke="white"/>
                <line x1="213.5" y1="127.5" x2="213.5" y2="111" stroke="white"/>
                <line x1="227.5" y1="127.5" x2="227.5" y2="111" stroke="white"/>
                <line x1="213.5" y1="105" x2="213.5" y2="111" stroke="white"/>
                <line x1="227.5" y1="105" x2="227.5" y2="111" stroke="white"/>
                <line x1="207.5" y1="131" x2="207.5" y2="134.5" stroke="white"/>
                <line x1="211.5" y1="131" x2="211.5" y2="134.5" stroke="white"/>
                <line x1="207.5" y1="130" x2="211.5" y2="130" stroke="white"/>
                <line x1="211.5" y1="131" x2="207.5" y2="131" stroke="white"/>
                <line x1="229.5" y1="130" x2="233.5" y2="130" stroke="white"/>
                <line x1="229.5" y1="131" x2="229.5" y2="135" stroke="white"/>
                <line x1="233.5" y1="131" x2="233.5" y2="134.5" stroke="white"/>
                <line x1="229.5" y1="131" x2="233.5" y2="131" stroke="white"/>
                <line x1="217" y1="101" x2="217" y2="104.5" stroke="white"/>
                <line x1="220.5" y1="107.5" x2="223.5" y2="110" stroke="white"/>
                <line x1="220.5" y1="107.5" x2="217" y2="110" stroke="white"/>
                <line x1="220" y1="110" x2="221" y2="110" stroke="white"/>
                <line x1="220" y1="110" x2="218" y2="111" stroke="white"/>
                <line x1="221" y1="110" x2="223" y2="111" stroke="white"/>
                <line x1="215" y1="95.5" x2="225" y2="95.5" stroke="white"/>
                <line x1="212.5" y1="87.5" x2="215.5" y2="87.5" stroke="white"/>
                <line x1="224.5" y1="87.5" x2="227.5" y2="87.5" stroke="white"/>
                <line x1="232.5" y1="88" x2="232" y2="93" stroke="white"/>
                <line x1="224" y1="101" x2="224" y2="104.5" stroke="white"/>
                <line x1="216.5" y1="107" x2="223.5" y2="110" stroke="white"/>
                <line x1="224" y1="107" x2="217" y2="110" stroke="white"/>
                <circle cx="226.5" cy="90.5" r="1" stroke="white" fill="#E0AE3F"/>
                <circle cx="214.5" cy="90.5" r="1" stroke="white" fill="#E0AE3F"/>
                <path d="M 227.5 111 C 230 116 229 122 229.5 130" stroke="white" fill="#E0AE3F"/>
                <path d="M 213.5 111 C 212 116 211.5 122 211.5 130" stroke="white" fill="#E0AE3F"/>
                <path d="M 208 164 L 219 164 219 160 213.5 159 208 164" stroke="white" fill="#E0AE3F"/>
                <path d="M 222 164 L 233 164 227.5 159 222 160 222 164" stroke="white" fill="#E0AE3F"/>
        </g>
<!--3rd-->
        <g>
                <path d="M 332 311 C 331.5 330 356 330 356 311" stroke="white" fill="#E0AE3F"/>
                <path d="M 356 316 C 360 316  360 311 356 311" stroke="white" fill="#E0AE3F"/>
                <path d="M 332 311 C 328 311 328 316 332 316" stroke="white" fill="#E0AE3F"/>
                <path d="M 331.5 308 C 332 293 352 293 356 303" stroke="white" fill="#E0AE3F"/>
                <path d="M 356 303 C 354 305.5 352 306 351 307" stroke="white" fill="#E0AE3F"/>
                <path d="M 351 307 C 351 306 351.5 305 351.5 303" stroke="white" fill="#E0AE3F"/>
                <path d="M 351.5 303 C 349.5 306 347 307 345 308" stroke="white" fill="#E0AE3F"/>
                <path d="M 345 308 C 345.5 306 345.5 305 345.5 303" stroke="white" fill="#E0AE3F"/>
                <path d="M 345.5 303 C 342 306 340 307.5 337 307.5" stroke="white" fill="#E0AE3F"/>
                <path d="M 337 307.5 C 337 307 338 306 338.5 304" stroke="white" fill="#E0AE3F"/>
                <path d="M 338.5 304 C 336 306 333.5 307 331.5 308" stroke="white" fill="#E0AE3F"/>
                <path d="M 333.5 307 C 333.5 309 334 310.5 332 311" stroke="white" fill="#E0AE3F"/>
                <path d="M 356 303 C 353 307 353.5 309 356 311" stroke="white" fill="#E0AE3F"/>
                <path d="M 340 319.5 C 342 322 345 322 347.5 319.5" stroke="white" fill="#E0AE3F"/>
                <path d="M 341 325.5 C 341 334 347 334 347 325.5" stroke="white" fill="#E0AE3F"/>
                <path d="M 340 327 C 330 328 330 336 330.5 354" stroke="white" fill="#E0AE3F"/>
                <path d="M 334.5 354 C 334.5 339 334.5 335 336.5 332" stroke="white" fill="#E0AE3F"/>
                <path d="M 348 327 C 358 332 357 333 357.5 354" stroke="white" fill="#E0AE3F"/>
                <path d="M 351 332 C 352.5 336 353 340 353.5 354" stroke="white" fill="#E0AE3F"/>
                <path d="M 330.5 358.5 C 330.5 362 334.5 362 334.5 358.5" stroke="white" fill="#E0AE3F"/>
                <path d="M 353.5 358.5 C 353.5 362 357.5 362 357.5 358.5" stroke="white" fill="#E0AE3F"/>
                <path d="M 336.5 332 L 337 383 331 388 342.5 388 343 357.5 345 357.5 345.5 388 356 388 351 383 351 332" stroke="white" fill="#E0AE3F"/>
                <line x1="331.5" y1="308" x2="332" y2="311" stroke="white"/>
                <line x1="356" y1="303" x2="356" y2="311" stroke="white"/>
                <line x1="335" y1="310" x2="339.5" y2="310" stroke="white"/>
                <line x1="347" y1="310" x2="351.5" y2="310" stroke="white"/>
                <line x1="330.5" y1="354" x2="334.5" y2="354" stroke="white"/>
                <line x1="353.5" y1="354" x2="357.5" y2="354" stroke="white"/>
                <line x1="336.5" y1="351" x2="351" y2="351" stroke="white"/>
                <line x1="337" y1="383" x2="342.5" y2="383" stroke="white"/>
                <line x1="345.5" y1="383" x2="350.5" y2="383" stroke="white"/>
                <line x1="350.5" y1="370" x2="345.5" y2="370" stroke="white"/>
                <line x1="337" y1="370" x2="343.5" y2="370" stroke="white"/>
                <line x1="357.5" y1="354" x2="357.5" y2="358.5" stroke="white"/>
                <line x1="353.5" y1="354" x2="353.5" y2="358.5" stroke="white"/>
                <line x1="334.5" y1="354" x2="334.5" y2="358.5" stroke="white"/>
                <line x1="330.5" y1="354" x2="330.5" y2="358.5" stroke="white"/>
                <circle cx="349.5" cy="313.5" r="1.5" stroke="white" fill="#E0AE3F"/>
                <circle cx="338" cy="313.5" r="1.5" stroke="white" fill="#E0AE3F"/>
                <line x1="336.5" y1="313.5" x2="339" y2="313.5" stroke="white"/>
                <line x1="348" y1="313.5" x2="350.5" y2="313.5" stroke="white"/>
        </g>
<!--4th-->
        <g>
                <path d="M 218 432.5 C 210 436 209 440 209 458.5" stroke="white" fill="#E0AE3F"/>
                <path d="M 223.5 432.5 C 231 436 233 440 232.5 458.5" stroke="white" fill="#E0AE3F"/>
                <path d="M 226.5 454.5 C 224.5 448 224.5 443 226.5 438.5" stroke="white" fill="#E0AE3F"/>
                <path d="M 214.5 438.5 C 216.5 443 216.5 448 214 454" stroke="white" fill="#E0AE3F"/>
                <path d="M 226.5 438.5 C 228.5 442 228.5 446 228.5 458.5" stroke="white" fill="#E0AE3F"/>
                <path d="M 214.5 438.5 C 212.5 442 212.5 446 212.5 458.5" stroke="white" fill="#E0AE3F"/>
                <path d="M 209 463 C 209 466 212.5 466 212.5 463" stroke="white" fill="#E0AE3F"/>
                <path d="M 228.5 463 C 228.5 466 232.5 466 232.5 463" stroke="white" fill="#E0AE3F"/>
                <path d="M 214 455 L 214.5 486 209 491 218.5 491 218.5 486 219.5 462.5 221.5 462.5 222.5 486 222.5 491 232 491 227 486 226.5 455" stroke="white" fill="#E0AE3F"/>
                <path d="M 217 433.5 L 218.5 437.5 220 436 220.5 437.5 220.5 437.5 221.5 436 222.5 437.5 225 433.5" stroke="white" fill="#E0AE3F"/>
                <path d="M 208 425 C 208 429 210 431 214 431.5" stroke="white" fill="#E0AE3F"/>
                <path d="M 207 413.5 C 203 416.5 202.5 420 208 425" stroke="white" fill="#E0AE3F"/>
                <path d="M 212.5 403.5 C 207 404 205 409 207 413.5" stroke="white" fill="#E0AE3F"/>
                <path d="M 220 402.5 C 217 401 214 401 212.5 403.5" stroke="white" fill="#E0AE3F"/>
                <path d="M 231 404 C 226 404.5 223 404 220 402.5" stroke="white" fill="#E0AE3F"/>
                <path d="M 234.5 414 C 236.5 409 235 406 231 404" stroke="white" fill="#E0AE3F"/>
                <path d="M 233.5 424.5 C 237 422 238 419 234.5 414" stroke="white" fill="#E0AE3F"/>
                <path d="M 208.5 411.5 C 207 408 208 407 212 405.5" stroke="white" fill="#E0AE3F"/>
                <path d="M 229 405.5 C 233 406 234 409 232.5 411.5" stroke="white" fill="#E0AE3F"/>
                <path d="M 233.5 424.5 C 233.5 429 231.5 431 225 430.5" stroke="white" fill="#E0AE3F"/>
                <path d="M 209.5 422.5 C 212 434 231 434 232 422.5" stroke="white" fill="#E0AE3F"/>
                <path d="M 209.5 418 C 211.5 417 212 416 211.5 414.5" stroke="white" fill="#E0AE3F"/>
                <path d="M 211.5 414.5 C 214 414.5 215 412 214.5 410" stroke="white" fill="#E0AE3F"/>
                <path d="M 216 424.5 C 218 429 222 429 224.5 424.5" stroke="white" fill="#E0AE3F"/>
                <path d="M 209.5 418 C 206 418 206 422.5 209.5 422.5" stroke="white" fill="#E0AE3F"/>
                <path d="M 232 418 C 235.5 418 235.5 422.5 232 422.5" stroke="white" fill="#E0AE3F"/>
                <path d="M 214.5 410 C 218 407.5 220 407 225 410.5" stroke="white" fill="#E0AE3F"/>
                <path d="M 226.5 411 C  226.5 412 227.5 414.5 229 414.5" stroke="white" fill="#E0AE3F"/>
                <path d="M 229 414.5 C 229 416 229.5 417 232 418" stroke="white" fill="#E0AE3F"/>
                <line x1="216" y1="424.5" x2="224.5" y2="424.5" stroke="white"/>
                <line x1="225" y1="410.5" x2="226.5" y2="411" stroke="white"/>
                <line x1="209.5" y1="418" x2="209.5" y2="422.5" stroke="white"/>
                <line x1="232" y1="418" x2="232" y2="422.5" stroke="white"/>
                <line x1="214" y1="454.5" x2="226.5" y2="454.5" stroke="white"/>
                <line x1="214" y1="455" x2="226.5" y2="455" stroke="white"/>
                <line x1="209" y1="459" x2="209" y2="463" stroke="white"/>
                <line x1="212.5" y1="459" x2="212.5" y2="463" stroke="white"/>
                <line x1="228.5" y1="459" x2="228.5" y2="463" stroke="white"/>
                <line x1="232.5" y1="459" x2="232.5" y2="463" stroke="white"/>
                <line x1="209" y1="458.5" x2="212.5" y2="458.5" stroke="white"/>
                <line x1="209" y1="459" x2="212.5" y2="459" stroke="white"/>
                <line x1="228.5" y1="458.5" x2="232.5" y2="458.5" stroke="white"/>
                <line x1="228.5" y1="459" x2="232.5" y2="459" stroke="white"/>
                <line x1="214.5" y1="486" x2="218.5" y2="486" stroke="white"/>
                <line x1="222.5" y1="486" x2="227" y2="486" stroke="white"/>
                <line x1="218" y1="432.5" x2="220" y2="436" stroke="white"/>
                <line x1="223.5" y1="432.5" x2="220.5" y2="437.5" stroke="white"/>
                <path d="M 220 420.5 C 222.5 423 221 423.5 219 423" stroke="white" fill="#E0AE3F"/>
                <path d="M 212.5 417.5 C 214 417 215 417 216.5 417.5" stroke="white" fill="#E0AE3F"/>
                <path d="M 212.5 417.5 C 214 418 215 418 216.5 417.5" stroke="white" fill="#E0AE3F"/>
                <path d="M 223.5 417.5 C 225.5 417 226.5 417 228 417.5" stroke="white" fill="#E0AE3F"/>
                <path d="M 223.5 417.5 C 225.5 418 226.5 418 228 417.5" stroke="white" fill="#E0AE3F"/>
                <ellipse cx="214" cy="420" rx="1" ry="2" stroke="white" fill="#E0AE3F"/>
                <ellipse cx="226" cy="420" rx="1" ry="2" stroke="white" fill="#E0AE3F"/>
        </g>
<!--5th-->
        <g>
                <path d="M 97.5 194.5 C 105 198 107 205 106.5 221.5" stroke="white" fill="#E0AE3F"/>
                <path d="M 103 221.5 C 103 206 103 202 100.5 200" stroke="white" fill="#E0AE3F"/>
                <path d="M 91.5 194.5 C 83 198 81.5 205 82.5 221.5" stroke="white" fill="#E0AE3F"/>
                <path d="M 86.5 221.5 C 86.5 206 86.5 202 88.5 200" stroke="white" fill="#E0AE3F"/>
                <path d="M 88.5 200 C 90 206 90 211 87.5 217.5" stroke="white" fill="#E0AE3F"/>
                <path d="M 102 217.5 C 98.5 211 98 206 100.5 200" stroke="white" fill="#E0AE3F"/>
                <path d="M 82.5 225.5 C 82.5 229 86.5 229 86.5 225.5" stroke="white" fill="#E0AE3F"/>
                <path d="M 80.5 178 C 80.5 161 108.5 161 108.5 178" stroke="white" fill="#E0AE3F"/>
                <path d="M 103 225.5 C 103 229 106.5 229 106.5 225.5" stroke="white" fill="#E0AE3F"/>
                <path d="M 89.5 195 C 90 203 99 203 99.5 195" stroke="white" fill="#E0AE3F"/>
                <path d="M 91.5 194.5 C 92 200 97 200 97.5 194.5" stroke="white" fill="#E0AE3F"/>
                <path d="M 106 171 C 106.5 174 106 176 106 179.5" stroke="white" fill="#E0AE3F"/>
                <path d="M 82.5 171 C 82 174 81.5 176 83 179.5" stroke="white" fill="#E0AE3F"/>
                <path d="M 83 179.5 C 79.5 179.5 79.5 184 83 184" stroke="white" fill="#E0AE3F"/>
                <path d="M 106 179.5 C 110 179.5 110 184 106 184" stroke="white" fill="#E0AE3F"/>
                <path d="M 83 179.5 C 84 198 106 198 106 179.5" stroke="white" fill="#E0AE3F"/>
                <path d="M 83 179.5 C 85.5 176 85 173 85 168.5" stroke="white" fill="#E0AE3F"/>
                <path d="M 85 168.5 C 87 171 87 173 86 176.5" stroke="white" fill="#E0AE3F"/>
                <path d="M 104 169 C 102 173 103 176 106 179.5" stroke="white" fill="#E0AE3F"/>
                <path d="M 104 169 C 102.5 172 102 174 103 176.5" stroke="white" fill="#E0AE3F"/>
                <path d="M 84 198 C 82.5 195 82.5 193 82.5 187" stroke="white" fill="#E0AE3F"/>
                <path d="M 107 187.5 C 107.5 192 107 195 106.5 198" stroke="white" fill="#E0AE3F"/>
                <path d="M 96.5 234.5 L 96.5 250 101 250 101.5 234.5" stroke="white" fill="#E0AE3F"/>
                <path d="M 88.5 234.5 L 88.5 250 92.5 250 92.5 234.5" stroke="white" fill="#E0AE3F"/>
                <path d="M 87.5 217.5 L 87.5 234.5 102 234.5 102 217.5" stroke="white" fill="#E0AE3F"/>
                <path d="M 88.5 250 L 82 255.5 89.5 255 89.5 253 90 253 90 255 92.5 255 92.5 250.5" stroke="white" fill="#E0AE3F"/>
                <path d="M 96.5 250.5 L 96.5 255.5 98 255.5 98 253 99.5 253 99.5 255.5 106 255.5 101 250.5" stroke="white" fill="#E0AE3F"/>
                <path d="M 96.5 250.5 C 99 253 102 254 104 253" stroke="white" fill="#E0AE3F"/>
                <path d="M 91.5 250 C 90 252 88 253 86 253" stroke="white" fill="#E0AE3F"/>
                <line x1="100" y1="203" x2="102" y2="203" stroke="white"/>
                <line x1="87.5" y1="203" x2="89" y2="203" stroke="white"/>
                <line x1="105.5" y1="196" x2="105.5" y2="190.5" stroke="white"/>
                <line x1="83.5" y1="190" x2="84" y2="195" stroke="white"/>
                <line x1="108.5" y1="203" x2="106" y2="203" stroke="white"/>
                <line x1="80.5" y1="203" x2="83" y2="203" stroke="white"/>
                <line x1="93" y1="184.5" x2="96.5" y2="184" stroke="white"/>
                <line x1="103" y1="178.5" x2="98" y2="178.5" stroke="white"/>
                <line x1="90.5" y1="178.5" x2="86.5" y2="178.5" stroke="white"/>
                <line x1="86" y1="176.5" x2="103" y2="176.5" stroke="white"/>
                <line x1="108.5" y1="178" x2="108.5" y2="203" stroke="white"/>
                <line x1="80.5" y1="178" x2="80.5" y2="203" stroke="white"/>
                <line x1="103" y1="221.5" x2="103" y2="225.5" stroke="white"/>
                <line x1="106.5" y1="221.5" x2="106.5" y2="225.5" stroke="white"/>
                <line x1="86.5" y1="221.5" x2="86.5" y2="225.5" stroke="white"/>
                <line x1="82.5" y1="221.5" x2="82.5" y2="225.5" stroke="white"/>
                <line x1="98.5" y1="222" x2="98.5" y2="229.5" stroke="white"/>
                <line x1="94.5" y1="229.5" x2="94.5" y2="223" stroke="white"/>
                <line x1="90.5" y1="222" x2="90.5" y2="229.5" stroke="white"/>
                <line x1="87.5" y1="217.5" x2="102" y2="217.5" stroke="white"/>
                <line x1="82.5" y1="221.5" x2="86.5" y2="221.5" stroke="white"/>
                <line x1="103" y1="221.5" x2="106.5" y2="221.5" stroke="white"/>
                <ellipse cx="89" cy="181.5" rx="1" ry="2" stroke="white" fill="#E0AE3F"/>
                <ellipse cx="100" cy="181.5" rx="1" ry="2" stroke="white" fill="#E0AE3F"/>
                <line x1="88" y1="181" x2="89.5" y2="180.5" stroke="white"/>
                <line x1="99.5" y1="181" x2="101.5" y2="181" stroke="white"/>
                <line x1="213.5" y1="420" x2="215.5" y2="420" stroke="white"/>
                <line x1="224.5" y1="420" x2="227" y2="420" stroke="white"/>
                <path d="M 90 186.5 C 93 190 96 190 99 186.5" stroke="white" fill="#E0AE3F"/>
                <path d="M 94.5 181.5 C 95.5 182 96.5 183 96.5 184" stroke="white" fill="#E0AE3F"/>
        </g>
<!--6th-->
        <g>
                <path d="M 90 333 L 90 384.5 84 389.5 95.5 389.5 95.5 387 95.5 358 97.5 358 97.5 389.5 109 389.5 103.5 384.5 103.5 333" stroke="white" fill="#E0AE3F"/>
                <line x1="90" y1="351.5" x2="103.5" y2="351.5" stroke="white"/>
                <line x1="90" y1="384.5" x2="95.5" y2="387" stroke="white"/>
                <line x1="97.5" y1="387" x2="103.5" y2="384.5" stroke="white"/>
                <line x1="84.5" y1="308" x2="84.5" y2="322" stroke="white"/>
                <line x1="108.5" y1="304" x2="108.5" y2="322" stroke="white"/>
                <path d="M 83.5 308 C 83.5 293 108 294 108.5 304" stroke="white" fill="#E0AE3F"/>
                <path d="M 97 308 C 98 306 98.5 304.5 98 303" stroke="white" fill="#E0AE3F"/>
                <path d="M 104.5 302.5 C 103 305 100 307.5 97 308" stroke="white" fill="#E0AE3F"/>
                <path d="M 103.5 307 C 104.5 305.5 104.5 304.5 104.5 302.5" stroke="white" fill="#E0AE3F"/>
                <path d="M 108.5 304 C 107 305 105 306 103.5 307" stroke="white" fill="#E0AE3F"/>
                <path d="M 108.5 311 C 113 311 113 316.5 108.5 316.5" stroke="white" fill="#E0AE3F"/>
                <path d="M 84.5 311 C 80 311 80 316.5 84.5 316.5" stroke="white" fill="#E0AE3F"/>
                <path d="M 106.5 358 C 106.5 363 110 363 110 358" stroke="white" fill="#E0AE3F"/>
                <path d="M 83 358 C 83 363 87 363 87 358" stroke="white" fill="#E0AE3F"/>
                <path d="M 102 328 C 109 332 110 336 110 358" stroke="white" fill="#E0AE3F"/>
                <path d="M 90 333 C 88 336 87.5 338 87 358" stroke="white" fill="#E0AE3F"/>
                <path d="M 103.5 333 C 105.5 336 106 338 106.5 358" stroke="white" fill="#E0AE3F"/>
                <path d="M 90.5 328 C 84 332 83 336 83 358" stroke="white" fill="#E0AE3F"/>
                <path d="M 98 303 C 96 306 93 307.5 89.5 308.5" stroke="white" fill="#E0AE3F"/>
                <path d="M 89.5 308.5 C 90 307 91 306 91.5 304" stroke="white" fill="#E0AE3F"/>
                <path d="M 91.5 304 C 89 305.5 86 307.5 83.5 308" stroke="white" fill="#E0AE3F"/>
                <path d="M 86 307.5 C 87 308 86.5 310 84.5 311" stroke="white" fill="#E0AE3F"/>
                <path d="M 108.5 304 C 106.5 306 106 309 108.5 311" stroke="white" fill="#E0AE3F"/>
                <path d="M 99 333 L 98 332.5 96.5 333.5 95.5 332 94 333" stroke="white" fill="#E0AE3F"/>
                <path d="M 108 320 L 109.5 324 107 323 107.5 325 105 325 105 326 102 326.5" stroke="white" fill="#E0AE3F"/>
                <path d="M 85.5 321 L 83.5 323 87 323 85.5 325 89 325 88 326.5 91.5 326.5 93 316.5 100 316.5" stroke="white" fill="#E0AE3F"/>
                <path d="M 84.5 316.5 C 84.5 331 108.5 331 108.5 316.5" stroke="white" fill="#E0AE3F"/>
                <line x1="93" y1="316.5" x2="100" y2="316.5" stroke="white"/>
                <path d="M 90.5 323 C 92 324.5 94 324 93 322" stroke="white" fill="#E0AE3F"/>
                <path d="M 93 322 C 94 324 97 323 95.5 321.5" stroke="white" fill="#E0AE3F"/>
                <path d="M 93 316.5 C 90 319 90 322 90 326.5" stroke="white" fill="#E0AE3F"/>
                <path d="M 100 316.5 C 103 319 103.5 322 103.5 326.5" stroke="white" fill="#E0AE3F"/>
                <path d="M 90.5 323 C 92 324.5 94 324 93 322" stroke="white" fill="#E0AE3F"/>
                <path d="M 98 321 C 97 323 99 324 100.5 322" stroke="white" fill="#E0AE3F"/>
                <path d="M 90.5 323 C 92 324.5 94 324 93 322" stroke="white" fill="#E0AE3F"/>
                <path d="M 102.5 323.5 C 100 325 99 324 100.5 322" stroke="white" fill="#E0AE3F"/>
                <path d="M 90.5 323 C 92 324.5 94 324 93 322" stroke="white" fill="#E0AE3F"/>
                <path d="M 84.5 311 C 85.5 315 87.5 320 90 321.5" stroke="white" fill="#E0AE3F"/>
                <path d="M 90.5 323 C 92 324.5 94 324 93 322" stroke="white" fill="#E0AE3F"/>
                <path d="M 108.5 311 C 107.5 315 105.5 320 103 321.5" stroke="white" fill="#E0AE3F"/>
                <path d="M 90.5 323 C 92 324.5 94 324 93 322" stroke="white" fill="#E0AE3F"/>
                <path d="M 93 322 C 93 317 100.5 317 100.5 322" stroke="white" fill="#E0AE3F"/>
                <path d="M 90.5 323 C 92 324.5 94 324 93 322" stroke="white" fill="#E0AE3F"/>
                <path d="M 94 319.5 C 95.5 320 97.5 320 100 319.5" stroke="white" fill="#E0AE3F"/>
                <path d="M 90.5 323 C 92 324.5 94 324 93 322" stroke="white" fill="#E0AE3F"/>
                <path d="M 95.5 320 C 94 322 99 322 97.5 320" stroke="white" fill="#ffffff"/>
                <path d="M 93 327 L 96.5 330 100 327" stroke="white" fill="#E0AE3F"/>
                <line x1="102" y1="328.5" x2="99" y2="333" stroke="white"/>
                <line x1="91" y1="328.5" x2="94" y2="333" stroke="white"/>
                <line x1="90.5" y1="328" x2="90.5" y2="326.5" stroke="white"/>
                <line x1="102" y1="328" x2="102" y2="326.5" stroke="white"/>
                <line x1="100" y1="311" x2="104" y2="311" stroke="white"/>
                <line x1="88" y1="311" x2="92" y2="311" stroke="white"/>
                <line x1="83.5" y1="338.5" x2="88" y2="338.5" stroke="white"/>
                <line x1="106" y1="338.5" x2="109.5" y2="338.5" stroke="white"/>
                <ellipse cx="90" cy="313.5" rx="1" ry="2" stroke="white" fill="#E0AE3F"/>
                <ellipse cx="102.5" cy="313.5" rx="1" ry="2" stroke="white" fill="#E0AE3F"/>
                <circle cx="96.5" cy="331" r="1" stroke="white" fill="#FFFFFF"/>
        </g>
</svg>
