<svg viewbox="0 0 439 531" xmlns="http://www.w3.org/2000/svg" style="background-color:#e0ae3f">
    <circle cx="221" cy="284" r="67" stroke="black" fill="#f9d074"/>
    <circle cx="221" cy="284" r="60" stroke="black" fill="#E0AE3F"/>
    <circle cx="221" cy="172" r="2" fill="black"/>
    <circle cx="321" cy="221" r="2" fill="black"/>
    <circle cx="320" cy="345" r="2" fill="black"/>
    <circle cx="221" cy="401" r="2" fill="black"/>
    <circle cx="122" cy="346" r="2" fill="black"/>
    <circle cx="120" cy="221" r="2" fill="black"/>
    <line x1="221" y1="217" x2="221" y2="172" stroke-dasharray="2" stroke="black"/>
    <line x1="278" y1="248" x2="321" y2="221" stroke-dasharray="2" stroke="black"/>
    <line x1="278" y1="319" x2="320" y2="345" stroke-dasharray="2" stroke="black"/>
    <line x1="221" y1="351" x2="221" y2="401" stroke-dasharray="2" stroke="black"/>
    <line x1="164" y1="319" x2="122" y2="346" stroke-dasharray="2" stroke="black"/>
    <line x1="164" y1="249" x2="120" y2="221" stroke-dasharray="2" stroke="black"/>
<!--small images-->
    <g>
<!--shoes-->
        <path d="M 339 247.5 L 339 249.5 333 254.5 343.5 254.5 343.5 249.5 343.5 247.5" stroke="white" fill="#E0AE3F"/>
        <path d="M 347 247.5 L 347 249.5 347 254.5 357.5 254.5 351.5 249.5 351.5 247.5" stroke="white" fill="#E0AE3F"/>
        <line x1="339" y1="249.5" x2="343.5" y2="249.5" stroke="white"/>
        <line x1="347" y1="249.5" x2="351.5" y2="249.5" stroke="white"/>
        <path d="M 340.5 204 C 341 209 340.5 211 338 216.5" stroke="white" fill="#E0AE3F"/>
        <path d="M 350 204 C 349.5 209 350 211 352 216.5" stroke="white" fill="#E0AE3F"/>
<!--shoes-->
<!--hands-->
        <path d="M 337.5 221.5 C 337.5 209 337.5 206 337.5 203" stroke="white" fill="#E0AE3F"/>
        <path d="M 352.5 203 C 353 206 353 209 353.5 221.5" stroke="white" fill="#E0AE3F"/>
        <path d="M 356 201 C 356.5 205 357.5 208 357.5 221.5" stroke="white" fill="#E0AE3F"/>
        <path d="M 334.5 201 C 333.5 205 333 205 333 221.5" stroke="white" fill="#E0AE3F"/>
<!--hands-->
        <path d="M 338 216.5 L 352 216.5 354 247.5 337 247.5 338 216.5" stroke="white" fill="#E0AE3F"/>
        <line x1="347.5" y1="224" x2="348.5" y2="244" stroke="white"/>
        <line x1="341.5" y1="244" x2="342.5" y2="224" stroke="white"/>
        <line x1="338" y1="216.5" x2="352" y2="216.5" stroke="white"/>
        <path d="M 353.5 221.5 C 353.5 228 357.5 228 357.5 221.5" stroke="white" fill="#E0AE3F"/>
        <path d="M 333 221.5 C 333 228 337.5 228 337.5 221.5" stroke="white" fill="#E0AE3F"/>
        <path d="M 334 201 C 340.5 205 350 205 356.5 201" stroke="white" fill="#E0AE3F"/>
        <line x1="333" y1="221.5" x2="337.3" y2="221.5" stroke="white"/>
        <line x1="353.5" y1="221.5" x2="357.5" y2="221.5" stroke="white"/>
        <path d="M 334 201 C 333.5 199 334 198 335 197.5" stroke="white" fill="#E0AE3F"/>
        <path d="M 356 201 C 357 199 356 199 355 197.5" stroke="white" fill="#E0AE3F"/>
        <path d="M 335 197 C 336 196.5 335.5 195.5 335 194" stroke="white" fill="#E0AE3F"/>
        <path d="M 355 197.5 C 354.5 196.5 354.5 196 355 194" stroke="white" fill="#E0AE3F"/>
        <path d="M 335 194 C 314 156 376 156 355 194" stroke="white" fill="#E0AE3F"/>
        <g>
            <path d="M 334.5 177 C 334 166 355 166 356 177" stroke="white" fill="#E0AE3F"/>
            <path d="M 334.5 177 C 341 172 349 172 356 177" stroke="white" fill="#E0AE3F"/>
            <path d="M 335 183 C 335 196 355 196 356 183" stroke="white" fill="#E0AE3F"/>
            <line x1="334.5" y1="177" x2="335" y2="183" stroke="white"/>
            <line x1="356" y1="177" x2="356" y2="183" stroke="white"/>
            <line x1="337.5" y1="177.5" x2="340.5" y2="177.5" stroke="white"/>
            <line x1="349" y1="177.5" x2="352" y2="177.5" stroke="white"/>
            <circle cx="350.5" cy="181" r="1.5" stroke="white" fill="#E0AE3F"/>
            <circle cx="339" cy="181" r="1.5" stroke="white" fill="#E0AE3F"/>
            <path d="M 345 182 C 347 184 346 186 343.5 185.5" stroke="white" fill="#E0AE3F"/>
            <path d="M 342.5 188 C 344 189 346 189 348 188" stroke="white" fill="#E0AE3F"/>
            <line x1="338" y1="181" x2="339" y2="180" stroke="white"/>
            <line x1="350" y1="181" x2="351" y2="180" stroke="white"/>
        </g>
    </g>
</svg>
