<svg viewbox="0 0 550 716" xmlns="http://www.w3.org/2000/svg">
    <path d="M 276 74 L 308 128 240 128 276 74" stroke="#4B6A77" fill="transparent"/>
    <path d="M 240 147 L 308 147 308 309 321 347 225 347 239 309 240 147" stroke="#4B6A77" fill="transparent"/>
    <path d="M 225 369 L 321 369 321 475 349 499 397 623 319 592 234 592 153 623 203 496 225 474 225 369" stroke="#4B6A77" fill="transparent"/>
    <path d="M 258 613 L 269 640 230 640 241 613 258 613" stroke="#4B6A77" fill="transparent"/>
    <path d="M 311 613 L 322 640 283 640 294 613 311 613" stroke="#4B6A77" fill="transparent"/>
    <path d="M 276 74 L 276 108 308 128" stroke="#4B6A77" fill="transparent"/>
    <line x1="240" y1="128" x2="276" y2="108" stroke="#4B6A77"/>
    <line x1="240" y1="147" x2="273" y2="186" stroke="#4B6A77"/>
    <line x1="273" y1="328" x2="321" y2="347" stroke="#4B6A77"/>
    <line x1="276" y1="507" x2="321" y2="475" stroke="#4B6A77"/>
    <line x1="319" y1="539" x2="349" y2="499" stroke="#4B6A77"/>
    <line x1="397" y1="623" x2="319" y2="539" stroke="#4B6A77"/>
    <line x1="225" y1="369" x2="276" y2="413" stroke="#4B6A77"/>
    <line x1="203" y1="496" x2="234" y2="539" stroke="#4B6A77"/>
    <line x1="153" y1="623" x2="234" y2="539" stroke="#4B6A77"/>
    <path d="M 308 147 L 273 186 273 328 308 309" stroke="#4B6A77" fill="transparent"/>
    <path d="M 239 309 L 273 328 225 347" stroke="#4B6A77" fill="transparent"/>
    <path d="M 321 369 L 276 413 276 507 319 539 319 592" stroke="#4B6A77" fill="transparent"/>
    <path d="M 225 474 L 276 507 234 539 234 592" stroke="#4B6A77" fill="transparent"/>
    <circle cx="276" cy="74" r="2" fill="#4b6a77"/>
    <circle cx="276" cy="108" r="2" fill="#4b6a77"/>
    <circle cx="308" cy="128" r="2" fill="#4b6a77"/>
    <circle cx="240" cy="128" r="2" fill="#4b6a77"/>
    <circle cx="240" cy="147" r="2" fill="#4b6a77"/>
    <circle cx="308" cy="147" r="2" fill="#4b6a77"/>
    <circle cx="273" cy="186" r="2" fill="#4b6a77"/>
    <circle cx="308" cy="309" r="2" fill="#4b6a77"/>
    <circle cx="321" cy="347" r="2" fill="#4b6a77"/>
    <circle cx="225" cy="347" r="2" fill="#4b6a77"/>
    <circle cx="239" cy="309" r="2" fill="#4b6a77"/>
    <circle cx="273" cy="328" r="2" fill="#4b6a77"/>
    <circle cx="225" cy="369" r="2" fill="#4b6a77"/>
    <circle cx="321" cy="369" r="2" fill="#4b6a77"/>
    <circle cx="321" cy="475" r="2" fill="#4b6a77"/>
    <circle cx="349" cy="499" r="2" fill="#4b6a77"/>
    <circle cx="397" cy="623" r="2" fill="#4b6a77"/>
    <circle cx="319" cy="592" r="2" fill="#4b6a77"/>
    <circle cx="153" cy="623" r="2" fill="#4b6a77"/>
    <circle cx="203" cy="496" r="2" fill="#4b6a77"/>
    <circle cx="225" cy="474" r="2" fill="#4b6a77"/>
    <circle cx="276" cy="413" r="2" fill="#4b6a77"/>
    <circle cx="276" cy="507" r="2" fill="#4b6a77"/>
    <circle cx="234" cy="539" r="2" fill="#4b6a77"/>
    <circle cx="319" cy="539" r="2" fill="#4b6a77"/>
    <circle cx="234" cy="592" r="2" fill="#4b6a77"/>
    <circle cx="258" cy="613" r="1.5" fill="#4b6a77"/>
    <circle cx="269" cy="640" r="1.5" fill="#4b6a77"/>
    <circle cx="230" cy="640" r="1.5" fill="#4b6a77"/>
    <circle cx="241" cy="613" r="1.5" fill="#4b6a77"/>
    <circle cx="311" cy="613" r="1.5" fill="#4b6a77"/>
    <circle cx="322" cy="640" r="1.5" fill="#4b6a77"/>
    <circle cx="283" cy="640" r="1.5" fill="#4b6a77"/>
    <circle cx="294" cy="613" r="1.5" fill="#4b6a77"/>
</svg>
