<svg viewbox="0 0 439 531" xmlns="http://www.w3.org/2000/svg">
    <g>
        <circle cx="364" cy="183" r="11.5" stroke="black" fill="white"/>
        <circle cx="364" cy="183" r="5" stroke="black" fill="white"/>
        <line x1="365" y1="171" x2="371" y2="174" stroke="white" stroke-width="2"/>
        <line x1="374" y1="176" x2="375" y2="180" stroke="white" stroke-width="3"/>
        <line x1="375" y1="184" x2="373" y2="189" stroke="white" stroke-width="3"/>
        <line x1="370" y1="191" x2="366" y2="193" stroke="white" stroke-width="5"/>
        <line x1="362" y1="193" x2="358" y2="192" stroke="white" stroke-width="4"/>
        <line x1="355" y1="190" x2="352" y2="185" stroke="white" stroke-width="2"/>
        <line x1="352" y1="181" x2="354" y2="176" stroke="white" stroke-width="4"/>
        <line x1="357" y1="173" x2="361" y2="171" stroke="white" stroke-width="4"/>
        <line x1="357" y1="174" x2="355" y2="171" stroke="black"/>
        <line x1="360" y1="169" x2="361" y2="172" stroke="black"/>
        <path d="M 355 171 C 356 168 359 168 360 169" fill="white" stroke="black"/>
        <line x1="353" y1="182" x2="349" y2="180" stroke="black"/>
        <line x1="352" y1="175" x2="355" y2="176" stroke="black"/>
        <path d="M 349 180 C 349 178 350 176 352 175" fill="white" stroke="black"/>
        <line x1="355" y1="190" x2="352" y2="191" stroke="black"/>
        <line x1="350" y1="186" x2="353" y2="185" stroke="black"/>
        <path d="M 352 191 C 350 190 349 188 350 186" fill="white" stroke="black"/>
        <line x1="362" y1="194" x2="361" y2="197" stroke="black"/>
        <line x1="356" y1="195" x2="358" y2="192" stroke="black"/>
        <path d="M 361 197 C 359 198 357 197 356 195" fill="white" stroke="black"/>
        <line x1="371" y1="192" x2="372" y2="195" stroke="black"/>
        <line x1="367" y1="197" x2="366" y2="194" stroke="black"/>
        <path d="M 372 195 C 371 197 369 198 367 197" fill="white" stroke="black"/>
        <line x1="375" y1="184" x2="378" y2="185" stroke="black"/>
        <line x1="376" y1="190" x2="373" y2="189" stroke="black"/>
        <path d="M 378 185 C 379 187 378 190 376 190" fill="white" stroke="black"/>
        <line x1="373" y1="176" x2="376" y2="175" stroke="black"/>
        <line x1="378" y1="179.5" x2="375" y2="180.5" stroke="black"/>
        <path d="M 376 175 C 378 176 378 178 378 180" fill="white" stroke="black"/>
        <line x1="372" y1="170" x2="371" y2="174" stroke="black"/>
        <line x1="365" y1="172" x2="366.5" y2="169" stroke="black"/>
        <path d="M 366.5 169 C 367 167 371 168 372 170 371 170" fill="white" stroke="black"/>
    </g>
    <line x1="220" y1="324" x2="220" y2="386" stroke="black" stroke-dasharray="5"/>
    <line x1="220" y1="386" x2="371" y2="386" stroke="black" stroke-dasharray="6"/>
    <g>
        <path d="M 377 417 C 377 424 387 424 387 417" fill="white" stroke="black"/>
        <path d="M 375 371 L 375 376 390 376 390 371 375 371" fill="white" stroke="black"/>
        <path d="M 384 355 L 384 344 395 360 387 371" fill="white" stroke="black"/>
        <path d="M 380 355 L 380 344 369 360 377 371" fill="white" stroke="black"/>
        <circle cx="382" cy="359" r="4" stroke="black" fill="white"/>
        <line x1="377" y1="376" x2="377" y2="417" stroke="black"/>
        <line x1="387" y1="376" x2="387" y2="417" stroke="black"/>
        <line x1="380" y1="356" x2="384" y2="356" stroke="white" stroke-width="3"/>
        <line x1="380" y1="344" x2="380" y2="356" stroke="black"/>
        <line x1="384" y1="344" x2="384" y2="356" stroke="black"/>
    </g>
    <g>
        <circle cx="220" cy="386" r="26" stroke="black" fill="white"/>
        <path d="M 225 385 L 220 381 211 391 215 395 225 385" fill="white" stroke="black"/>
        <path d="M 215 395 L 211 391 208 398 215 395" fill="white" stroke="black"/>
        <line x1="220" y1="386" x2="223" y2="383" stroke="black"/>
        <line x1="209" y1="395" x2="211" y2="397" stroke="black"/>
        <line x1="225" y1="376" x2="227" y2="374" stroke="black"/>
        <line x1="232" y1="378" x2="230" y2="380" stroke="black"/>
        <path d="M 226 375 C 231 371 235 377 230 380 " fill="white" stroke="black"/>
        <rect x="412" y="143" width="10" height="7" rx="2" fill="white" stroke="black" style="transform:rotate(40deg)"/>
        <line x1="222" y1="377" x2="226" y2="380" stroke="black"/>
    </g>
    <path d="M 138 263 L 77 263 77 249" fill="white" stroke="black" stroke-dasharray="5"/>
    <line x1="213" y1="393" x2="216" y2="390" stroke="black"/>
    <g>
        <circle cx="319" cy="203.5" r="21.3" stroke="black" fill="white"/>
        <line x1="301" y1="192" x2="307" y2="185" stroke="white" stroke-width="3"/>
        <line x1="297" y1="201" x2="297" y2="199" stroke="white" stroke-width="3"/>
        <line x1="313" y1="184" x2="323" y2="182" stroke="white" stroke-width="4"/>
        <line x1="329" y1="185" x2="336" y2="192" stroke="white" stroke-width="4"/>
        <line x1="339" y1="198" x2="339" y2="209" stroke="white" stroke-width="4"/>
        <line x1="337" y1="215" x2="329" y2="222" stroke="white" stroke-width="4"/>
        <line x1="323" y1="224" x2="319" y2="224" stroke="white" stroke-width="2"/>
        <circle cx="318" cy="204" r="10" stroke="black" fill="white"/>
        <line x1="301" y1="192" x2="295" y2="188" stroke="black"/>
        <line x1="296" y1="183" x2="298" y2="181" stroke="black"/>
        <line x1="303" y1="181" x2="308" y2="185" stroke="black"/>
        <line x1="313" y1="184" x2="313" y2="177" stroke="black"/>
        <line x1="315" y1="174" x2="319" y2="174" stroke="black"/>
        <line x1="323" y1="176" x2="323" y2="183" stroke="black"/>
        <line x1="329" y1="185" x2="334" y2="181" stroke="black"/>
        <line x1="338" y1="181" x2="341" y2="184" stroke="black"/>
        <line x1="341" y1="188" x2="337" y2="192" stroke="black"/>
        <line x1="339" y1="198" x2="346" y2="198" stroke="black"/>
        <line x1="348" y1="202" x2="348" y2="206" stroke="black"/>
        <line x1="345" y1="209" x2="339" y2="209" stroke="black"/>
        <line x1="337" y1="215" x2="341" y2="219" stroke="black"/>
        <line x1="342" y1="223" x2="338" y2="227" stroke="black"/>
        <line x1="333" y1="226" x2="329" y2="222" stroke="black"/>
        <line x1="290" y1="199" x2="299" y2="199" stroke="black"/>
        <line x1="323" y1="224" x2="323" y2="231" stroke="black"/>
        <path d="M 323 231 C 323 233 321 233 321 234" fill="white" stroke="black"/>
        <path d="M 288 201 C 288 205 289 198 290 199" fill="white" stroke="black"/>
        <path d="M 341 219 C 342 220 342 222 342 223" fill="white" stroke="black"/>
        <path d="M 338 227 C 337 228 335 228 333 226" fill="white" stroke="black"/>
        <path d="M 348 206 C 348 207 346 209 345 209" fill="white" stroke="black"/>
        <path d="M 346 198 C 347 198 348 201 348 202" fill="white" stroke="black"/>
        <path d="M 341 184 C 343 185 342 187 341 188" fill="white" stroke="black"/>
        <path d="M 334 181 C 335 180 337 180 338 181" fill="white" stroke="black"/>
        <path d="M 319 174 C 321 174 323 175 323 176" fill="white" stroke="black"/>
        <path d="M 295 188 C 294 187 295 184 296 183" fill="white" stroke="black"/>
        <path d="M 313 177 C 313 175 314 174 315 174" fill="white" stroke="black"/>
        <path d="M 298 181 C 299 180 302 180 303 181" fill="white" stroke="black"/>
    </g>
    <g>
        <rect x="145" y="201" width="176" height="123" rx="10" fill="#A2C121" stroke="black"/>
        <path d="M 158 224 L 158 254 305 254 305 224 158 224" stroke="white" fill="#A2C121"/>
        <path d="M 159 265 L 183 265 183 288 159 288 159 265" stroke="white" fill="#A2C121"/>
        <path d="M 200 265 L 200 288 224 288 224 265 200 265" stroke="white" fill="#A2C121"/>
        <path d="M 240 265 L 240 288 264 288 264 265 240 265" stroke="white" fill="#A2C121"/>
        <path d="M 280 265 L 280 288 304 288 304 265 280 265" stroke="white" fill="#A2C121"/>
        <line x1="145" y1="215" x2="321" y2="215" stroke="white"/>
        <line x1="159" y1="300" x2="304" y2="300" stroke="white"/>
        <line x1="159" y1="307" x2="304" y2="307" stroke="white"/>
        <line x1="159" y1="314" x2="237" y2="314" stroke="white"/>
        <circle cx="153" cy="209" r="2" stroke="white" fill="#A2C121" stroke-width="2"/>
        <circle cx="161" cy="209" r="2" stroke="white" fill="#A2C121" stroke-width="2"/>
    </g>
    <g>
        <path d="M 206 99 L 228 107 228 131 206 141 185 131 185 107 206 99" stroke="black" fill="white"/>
        <path d="M 228 118 L 240 114 251 118 251 131 240 136 228 131 228 118" stroke="black" fill="white"/>
        <path d="M 185 107 L 206 116 228 107" stroke="black" fill="white"/>
        <path d="M 228 118 L 240 123 251 118" stroke="black" fill="white"/>
    </g>
    <line x1="240" y1="123" x2="240" y2="136" stroke="black"/>
    <line x1="228" y1="137" x2="228" y2="201" stroke="black" stroke-dasharray="5"/>
    <line x1="206" y1="116" x2="206" y2="141" stroke="black"/>
    <g>
        <path d="M 93 223 C 93 228 93 230 89 233" stroke="black" fill="transparent"/>
        <path d="M 61 223 C 61 228 62 230 66 233" stroke="black" fill="transparent"/>
        <path d="M 98 210 C 93 215 92 217 93 223" stroke="black" fill="transparent"/>
        <path d="M 55 210 C 61 215 62 217 61 223" stroke="black" fill="transparent"/>
        <path d="M 55 210 C 20 145 135 145 98 210" stroke="black" fill="transparent"/>
        <path d="M 74 206 C 77 208 79 208 81 206" stroke="black" fill="transparent"/>
        <path d="M 71 209 C 69 206 71 204 74 206" stroke="black" fill="transparent"/>
        <path d="M 81 206 C 85 202 88 205 85 209" stroke="black" fill="transparent"/>
        <line x1="66" y1="233" x2="89" y2="233" stroke="black" stroke-width="2"/>
        <path d="M 66 233 C 66 248 89 248 89 233 " stroke="black" fill="white"/>
        <line x1="66" y1="237" x2="74" y2="237" stroke="black"/>
        <line x1="78" y1="233" x2="78" y2="211" stroke="black"/>
        <line x1="76" y1="233" x2="71" y2="209" stroke="black"/>
        <line x1="80" y1="233" x2="85" y2="209" stroke="black"/>
    </g>
</svg>
